<?xml version="1.0" encoding="UTF-8" standalone="no"?>
<!-- Created with Inkscape (http://www.inkscape.org/) -->

<svg
   width="256"
   height="256"
   viewBox="0 0 67.733332 67.733333"
   version="1.1"
   id="svg1"
   xml:space="preserve"
   xmlns="http://www.w3.org/2000/svg"
   xmlns:svg="http://www.w3.org/2000/svg"><defs
     id="defs1" /><g
     id="layer1"><path
       style="fill:#000000;stroke-width:0.95503"
       d="M 0.23274634,62.847586 V 58.425591 H 4.6547415 9.0767366 v 4.421995 4.421995 H 4.6547415 0.23274634 Z m 7.58056386,0 V 59.68902 H 4.6547415 1.4961727 v 3.158566 3.158566 h 3.1585688 3.1585687 z m -5.0537096,0 v -1.895137 h 1.8951409 1.8951412 v 1.895137 1.895146 H 4.6547415 2.7596006 Z m 7.5805634,1.895146 v -2.526863 h 0.631714 c 0.505371,0 0.631714,-0.126337 0.631714,-0.631703 0,-0.58961 0.08422,-0.631717 1.263427,-0.631717 1.179198,0 1.263427,0.04211 1.263427,0.631717 0,0.505366 0.126344,0.631703 0.631714,0.631703 h 0.631714 V 59.68902 57.162167 h 2.526854 2.526854 v 0.631716 c 0,0.505365 0.126343,0.631708 0.631715,0.631708 h 0.631714 v -2.526854 -2.526849 h -0.631714 c -0.505372,0 -0.631715,-0.126342 -0.631715,-0.631717 0,-0.589596 -0.08422,-0.631716 -1.263426,-0.631716 -1.179199,0 -1.263428,-0.04211 -1.263428,-0.631713 0,-0.589601 -0.08422,-0.631717 -1.263427,-0.631717 h -1.263427 v 1.26343 c 0,1.179198 -0.04211,1.263433 -0.631714,1.263433 -0.5896,0 -0.631714,0.08423 -0.631714,1.26342 v 1.263429 h -1.89514 c -1.853028,0 -1.895142,0.01405 -1.895142,0.631717 0,0.505374 0.126343,0.631713 0.631714,0.631713 0.505371,0 0.631714,0.126342 0.631714,0.631716 0,0.505365 0.126342,0.631708 0.631714,0.631708 0.505371,0 0.631713,0.126347 0.631713,0.631712 0,0.505375 -0.126342,0.631717 -0.631713,0.631717 -0.505372,0 -0.631714,-0.126342 -0.631714,-0.631717 0,-0.505365 -0.126343,-0.631712 -0.631714,-0.631712 -0.505371,0 -0.631714,-0.126343 -0.631714,-0.631708 0,-0.58961 -0.08422,-0.631716 -1.2634274,-0.631716 -1.1791988,0 -1.2634264,-0.04211 -1.2634264,-0.631713 0,-0.589601 0.084222,-0.631717 1.2634264,-0.631717 1.1791984,0 1.2634274,-0.04211 1.2634274,-0.631717 V 54.635308 H 7.1815954 4.0230283 v 0.631712 c 0,0.505374 0.1263421,0.631717 0.6317132,0.631717 0.5053708,0 0.6317127,0.126342 0.6317127,0.631717 0,0.505374 -0.1263419,0.631713 -0.6317127,0.631713 -0.5053711,0 -0.6317132,-0.126339 -0.6317132,-0.631713 0,-0.589601 -0.084234,-0.631717 -1.2634277,-0.631717 -1.1791988,0 -1.2634279,-0.04211 -1.2634279,-0.631717 0,-0.505361 -0.126342,-0.631712 -0.63171316,-0.631712 -0.50537119,0 -0.6317132,-0.126342 -0.6317132,-0.631708 0,-0.505374 0.12634201,-0.631712 0.6317132,-0.631712 0.50537116,0 0.63171316,-0.126342 0.63171316,-0.631717 0,-0.505374 -0.126342,-0.631716 -0.63171316,-0.631716 -0.50537119,0 -0.6317132,-0.126339 -0.6317132,-0.631713 0,-0.505365 0.12634201,-0.631717 0.6317132,-0.631717 H 1.4961727 V 47.054742 43.26446 H 0.86445954 c -0.50537119,0 -0.6317132,-0.126338 -0.6317132,-0.631704 V 42.00104 H 2.7596006 5.2864542 v -0.631713 c 0,-0.505374 -0.1263419,-0.631717 -0.6317127,-0.631717 -0.5053711,0 -0.6317132,-0.126342 -0.6317132,-0.631716 0,-0.505365 -0.1263433,-0.631713 -0.6317145,-0.631713 -0.5053704,0 -0.6317132,0.126348 -0.6317132,0.631713 0,0.505374 -0.126343,0.631716 -0.6317133,0.631716 -0.5053712,0 -0.6317146,-0.126342 -0.6317146,-0.631716 0,-0.505365 0.1263434,-0.631713 0.6317146,-0.631713 0.5895994,0 0.6317133,-0.08423 0.6317133,-1.263424 0,-1.179204 0.042115,-1.26343 0.6317132,-1.26343 0.5053712,0 0.6317145,-0.126343 0.6317145,-0.631713 0,-0.505366 -0.1263433,-0.631717 -0.6317145,-0.631717 -0.5053704,0 -0.6317132,-0.126342 -0.6317132,-0.631707 0,-0.505375 -0.126343,-0.631713 -0.6317133,-0.631713 -0.5053712,0 -0.6317146,0.126338 -0.6317146,0.631713 0,0.505365 -0.126342,0.631707 -0.63171316,0.631707 -0.50537119,0 -0.6317132,-0.126342 -0.6317132,-0.631707 0,-0.505375 0.12634201,-0.631713 0.6317132,-0.631713 0.50537116,0 0.63171316,-0.126342 0.63171316,-0.631717 0,-0.505374 -0.126342,-0.631717 -0.63171316,-0.631717 -0.50537119,0 -0.6317132,-0.126338 -0.6317132,-0.631711 0,-0.505366 0.12634201,-0.631717 0.6317132,-0.631717 0.50537116,0 0.63171316,-0.126343 0.63171316,-0.631704 0,-0.505375 0.1263434,-0.631716 0.6317146,-0.631716 0.5053703,0 0.6317133,0.126341 0.6317133,0.631716 0,0.505361 -0.126343,0.631704 -0.6317133,0.631704 -0.5053712,0 -0.6317146,0.126351 -0.6317146,0.631717 0,0.505373 0.1263434,0.631711 0.6317146,0.631711 0.5053703,0 0.6317133,0.126343 0.6317133,0.631717 0,0.505375 0.1263428,0.631717 0.6317132,0.631717 0.5053712,0 0.6317145,0.126338 0.6317145,0.631713 0,0.505365 0.1263421,0.631707 0.6317132,0.631707 0.5895995,0 0.6317127,-0.08423 0.6317127,-1.26342 0,-1.179206 -0.042111,-1.263434 -0.6317127,-1.263434 -0.6176752,0 -0.6317132,-0.04211 -0.6317132,-1.895132 0,-1.853031 -0.014037,-1.895146 -0.6317145,-1.895146 -0.5053704,0 -0.6317132,-0.126342 -0.6317132,-0.631717 0,-0.505365 -0.126343,-0.631717 -0.6317133,-0.631717 -0.5053712,0 -0.6317146,0.126352 -0.6317146,0.631717 0,0.505375 -0.126342,0.631717 -0.63171316,0.631717 -0.50537119,0 -0.6317132,-0.126342 -0.6317132,-0.631717 0,-0.505365 0.12634201,-0.631717 0.6317132,-0.631717 0.58959926,0 0.63171316,-0.08423 0.63171316,-1.26342 0,-1.179206 -0.042115,-1.263428 -0.63171316,-1.263428 -0.5895993,0 -0.6317132,-0.08423 -0.6317132,-1.26343 V 23.049629 H 1.4961727 c 1.1791988,0 1.2634279,-0.04211 1.2634279,-0.631713 0,-0.505372 -0.126343,-0.631715 -0.6317133,-0.631715 -0.5896003,0 -0.6317146,-0.08423 -0.6317146,-1.263429 0,-1.179198 -0.042115,-1.26342 -0.63171316,-1.26342 -0.50537119,0 -0.6317132,-0.126342 -0.6317132,-0.631716 0,-0.505375 0.12634201,-0.631717 0.6317132,-0.631717 0.50537116,0 0.63171316,-0.126339 0.63171316,-0.631713 0,-0.505365 -0.126342,-0.631717 -0.63171316,-0.631717 -0.5895993,0 -0.6317132,-0.08423 -0.6317132,-1.26342 0,-1.179197 0.0421154,-1.263429 0.6317132,-1.263429 0.50537116,0 0.63171316,-0.126342 0.63171316,-0.631716 0,-0.505366 -0.126342,-0.631717 -0.63171316,-0.631717 -0.5895993,0 -0.6317132,-0.08423 -0.6317132,-1.263416 V 10.415357 H 2.7596006 5.2864542 v 0.631717 c 0,0.589597 0.084222,0.631717 1.2634285,0.631717 1.1791988,0 1.2634275,-0.04211 1.2634275,-0.631717 0,-0.505374 0.1263419,-0.631717 0.6317137,-0.631717 0.5053708,0 0.6317127,0.126343 0.6317127,0.631717 0,0.505374 0.1263429,0.631717 0.6317137,0.631717 0.5053707,0 0.6317137,-0.126343 0.6317137,-0.631717 0,-0.589601 0.08422,-0.631717 1.263428,-0.631717 1.179199,0 1.263427,0.04211 1.263427,0.631717 0,0.505374 0.126343,0.631717 0.631714,0.631717 0.5896,0 0.631713,0.08423 0.631713,1.263416 v 1.263433 h 1.263428 1.263427 v 1.263429 c 0,1.179198 0.04211,1.26342 0.631715,1.26342 0.617675,0 0.631712,-0.04211 0.631712,-1.895137 0,-1.853025 -0.01404,-1.895145 -0.631712,-1.895145 -0.505372,0 -0.631715,-0.126339 -0.631715,-0.631703 0,-0.505375 -0.126342,-0.631713 -0.631714,-0.631713 -0.505371,0 -0.631713,-0.126343 -0.631713,-0.631717 0,-0.505374 -0.126343,-0.631717 -0.631714,-0.631717 -0.50537,0 -0.631714,-0.126337 -0.631714,-0.6317123 0,-0.5053645 -0.126342,-0.6317169 -0.631713,-0.6317169 -0.5896,0 -0.631714,-0.084233 -0.631714,-1.2634201 0,-1.1791977 0.04211,-1.2634337 0.631714,-1.2634337 0.5896,0 0.631713,0.084233 0.631713,1.2634337 0,1.1791936 0.04211,1.2634201 0.631714,1.2634201 0.617675,0 0.631714,-0.042101 0.631714,-1.8951359 V 5.3616455 h 1.263427 1.263427 v -1.895136 c 0,-1.8530289 0.01404,-1.8951454 0.631714,-1.8951454 0.505371,0 0.631714,0.1263504 0.631714,0.6317148 0,0.505374 0.126342,0.6317159 0.631713,0.6317159 0.5896,0 0.631713,-0.084233 0.631713,-1.2634307 V 0.30794299 h 1.263429 c 1.179197,0 1.263426,0.0421112 1.263426,0.63171478 0,0.50536553 -0.126342,0.63170633 -0.631714,0.63170633 -0.505369,0 -0.631712,0.1263504 -0.631712,0.6317148 0,0.505374 -0.126344,0.6317159 -0.631714,0.6317159 -0.505372,0 -0.631715,0.1263408 -0.631715,0.6317147 0,0.6176764 0.04211,0.6317159 1.895141,0.6317159 1.853027,0 1.895141,0.014041 1.895141,0.6317147 0,0.5895984 -0.08422,0.6317054 -1.263427,0.6317054 -1.179199,0 -1.263426,0.042122 -1.263426,0.6317158 0,0.505375 0.126343,0.6317127 0.631712,0.6317127 0.505372,0 0.631714,0.1263429 0.631714,0.6317179 0,0.5053739 0.126343,0.6317158 0.631714,0.6317158 0.505372,0 0.631713,-0.1263419 0.631713,-0.6317158 0,-0.505375 0.126343,-0.6317179 0.631714,-0.6317179 0.505371,0 0.631714,-0.1263377 0.631714,-0.6317127 0,-0.5053645 0.126343,-0.6317158 0.631714,-0.6317158 0.50537,0 0.631713,-0.1263409 0.631713,-0.6317054 0,-0.5053739 0.126343,-0.6317147 0.631717,-0.6317147 0.505375,0 0.631713,0.1263408 0.631713,0.6317147 0,0.5053645 -0.126338,0.6317054 -0.631713,0.6317054 -0.505374,0 -0.631717,0.1263513 -0.631717,0.6317158 0,0.5895973 0.08422,0.6317127 1.26343,0.6317127 h 1.26342 V 4.0982254 1.5713641 h -0.631703 c -0.505374,0 -0.631717,-0.1263408 -0.631717,-0.63170633 0,-0.58960677 0.08423,-0.63171478 1.26342,-0.63171478 1.179207,0 1.263434,0.0421112 1.263434,0.63171478 0,0.50536553 0.126337,0.63170633 0.631712,0.63170633 0.505374,0 0.631717,-0.1263408 0.631717,-0.63170633 0,-0.50537393 0.126342,-0.63171478 0.631716,-0.63171478 0.505361,0 0.631704,0.12634085 0.631704,0.63171478 0,0.50536553 -0.126343,0.63170633 -0.631704,0.63170633 -0.505374,0 -0.631716,0.1263504 -0.631716,0.6317148 0,0.505374 -0.126343,0.6317159 -0.631717,0.6317159 -0.589597,0 -0.631712,0.084233 -0.631712,1.2634306 0,1.1791956 0.04211,1.2634201 0.631712,1.2634201 0.505374,0 0.631717,-0.1263409 0.631717,-0.6317054 0,-0.5053739 0.126342,-0.6317147 0.631716,-0.6317147 0.505361,0 0.631704,0.1263408 0.631704,0.6317147 0,0.6176764 0.0421,0.6317054 1.895146,0.6317054 h 1.895146 v 3.1585749 3.1585706 h -0.631717 c -0.505375,0 -0.631712,0.126338 -0.631712,0.631713 0,0.505364 0.126337,0.631703 0.631712,0.631703 0.505374,0 0.631717,0.126351 0.631717,0.631717 0,0.505374 0.126342,0.631716 0.631718,0.631716 0.589597,0 0.631703,-0.08423 0.631703,-1.263433 0,-1.179194 0.04211,-1.263416 0.631717,-1.263416 0.505375,0 0.631713,0.126338 0.631713,0.631713 0,0.505364 0.126342,0.631703 0.631717,0.631703 h 0.631717 v -2.52685 -2.5268493 h 0.631711 c 0.505366,0 0.631709,0.1263388 0.631709,0.6317127 0,0.5053655 0.126351,0.6317074 0.631717,0.6317074 0.589594,0 0.631709,-0.084233 0.631709,-1.2634201 0,-1.1791977 -0.04211,-1.2634337 -0.631709,-1.2634337 -0.505366,0 -0.631717,-0.1263377 -0.631717,-0.6317127 0,-0.5895984 -0.08423,-0.6317158 -1.26342,-0.6317158 h -1.263434 v 1.8951464 c 0,1.85303 -0.01405,1.8951359 -0.631713,1.8951359 -0.617675,0 -0.631717,-0.042101 -0.631717,-1.8951359 0,-1.853029 0.01405,-1.8951464 0.631717,-1.8951464 0.505375,0 0.631713,-0.1263409 0.631713,-0.6317054 0,-0.5053739 0.126342,-0.6317147 0.631717,-0.6317147 0.617675,0 0.631717,-0.042122 0.631717,-1.8951465 0,-1.8530279 0.01405,-1.89513591 0.631711,-1.89513591 0.589602,0 0.631709,0.0842328 0.631709,1.26342111 v 1.2634307 h 1.263426 c 1.179198,0 1.26343,0.042111 1.26343,0.6317147 0,0.505374 0.126342,0.6317159 0.631717,0.6317159 0.505364,0 0.631707,-0.1263419 0.631707,-0.6317159 0,-0.5053739 0.126347,-0.6317147 0.631713,-0.6317147 0.505374,0 0.631717,-0.1263419 0.631717,-0.6317159 0,-0.5053644 -0.126343,-0.6317148 -0.631717,-0.6317148 -0.505366,0 -0.631713,-0.1263408 -0.631713,-0.63170633 0,-0.50537393 0.126347,-0.63171478 0.631713,-0.63171478 0.505374,0 0.631717,0.12634085 0.631717,0.63171478 0,0.50536553 0.126342,0.63170633 0.631715,0.63170633 0.505375,0 0.631713,-0.1263408 0.631713,-0.63170633 0,-0.61767632 0.04211,-0.63171478 1.895137,-0.63171478 1.85303,0 1.895147,0.0140406 1.895147,0.63171478 0,0.50536553 0.126341,0.63170633 0.631716,0.63170633 0.505361,0 0.631704,-0.1263408 0.631704,-0.63170633 0,-0.50537393 0.126351,-0.63171478 0.631715,-0.63171478 0.505375,0 0.631713,0.12634085 0.631713,0.63171478 0,0.50536553 0.126343,0.63170633 0.631717,0.63170633 0.589602,0 0.631717,0.084233 0.631717,1.2634307 0,1.1791956 0.04211,1.2634306 0.631713,1.2634306 0.505364,0 0.631707,0.1263408 0.631707,0.6317147 0,0.5053645 -0.126343,0.6317054 -0.631707,0.6317054 -0.505375,0 -0.631713,-0.1263409 -0.631713,-0.6317054 0,-0.5053739 -0.126343,-0.6317147 -0.631717,-0.6317147 H 54.560119 V 6.625074 9.1519278 h 0.631717 c 0.505374,0 0.631717,-0.1263419 0.631717,-0.6317074 0,-0.5053739 0.126338,-0.6317127 0.631713,-0.6317127 0.5896,0 0.631707,0.084233 0.631707,1.2634201 0,1.1792072 0.04211,1.2634292 0.631717,1.2634292 0.505374,0 0.631713,0.126343 0.631713,0.631717 0,0.505374 -0.126339,0.631717 -0.631713,0.631717 -0.505366,0 -0.631717,0.126338 -0.631717,0.631713 0,0.617675 -0.04211,0.631703 -1.895137,0.631703 h -1.895145 v 1.263433 c 0,1.179193 0.04211,1.263429 0.631715,1.263429 0.505375,0 0.631713,-0.126343 0.631713,-0.631717 0,-0.505374 0.126343,-0.631712 0.631717,-0.631712 0.589602,0 0.631717,0.08423 0.631717,1.263429 0,1.179198 0.04211,1.26342 0.631713,1.26342 0.5896,0 0.631707,-0.08423 0.631707,-1.26342 0,-1.179197 0.04211,-1.263429 0.631717,-1.263429 0.505374,0 0.631713,-0.126342 0.631713,-0.631716 0,-0.505366 0.126341,-0.631717 0.631716,-0.631717 0.505374,0 0.631716,-0.126339 0.631716,-0.631703 0,-0.505375 0.126339,-0.631713 0.631713,-0.631713 0.505365,0 0.631707,-0.126343 0.631707,-0.631717 0,-0.617675 0.04211,-0.631717 1.895143,-0.631717 1.853025,0 1.895137,0.01405 1.895137,0.631717 0,0.589597 -0.08423,0.631717 -1.263426,0.631717 -1.179192,0 -1.263428,0.04211 -1.263428,0.631713 0,0.505364 0.126342,0.631703 0.631717,0.631703 0.505374,0 0.631711,0.126351 0.631711,0.631717 0,0.505374 0.126343,0.631716 0.631717,0.631716 0.505366,0 0.631709,-0.126342 0.631709,-0.631716 0,-0.505366 0.126346,-0.631717 0.631711,-0.631717 0.589602,0 0.631717,-0.08423 0.631717,-1.263416 0,-1.179198 0.04211,-1.263434 0.631717,-1.263434 0.589596,0 0.631713,0.08423 0.631713,1.263434 0,1.179194 -0.04211,1.263416 -0.631713,1.263416 -0.505374,0 -0.631717,0.126351 -0.631717,0.631717 0,0.505374 0.126343,0.631716 0.631717,0.631716 0.505374,0 0.631713,0.126338 0.631713,0.631712 0,0.505374 -0.126339,0.631717 -0.631713,0.631717 -0.505374,0 -0.631717,-0.126343 -0.631717,-0.631717 0,-0.505374 -0.126342,-0.631712 -0.631717,-0.631712 -0.617675,0 -0.631711,0.04211 -0.631711,1.895146 0,1.853017 0.01405,1.895133 0.631711,1.895133 0.61768,0 0.631717,0.0421 0.631717,1.895145 0,1.853022 0.01405,1.895137 0.631717,1.895137 0.505374,0 0.631713,0.126343 0.631713,0.631715 0,0.589597 -0.08423,0.631713 -1.26343,0.631713 -1.179198,0 -1.263428,-0.04211 -1.263428,-0.631713 v -0.631715 h -2.526854 -2.526846 v 0.631715 c 0,0.589597 -0.08423,0.631713 -1.263432,0.631713 h -1.26343 v 1.263424 c 0,1.179202 0.04211,1.26343 0.631717,1.26343 0.505374,0 0.631713,0.126342 0.631713,0.631716 0,0.50537 0.126341,0.631712 0.631716,0.631712 0.617675,0 0.631716,0.04211 0.631716,1.895137 v 1.895147 h 1.26342 c 1.179203,0 1.263426,0.0421 1.263426,0.631716 0,0.505361 0.126342,0.631704 0.631717,0.631704 0.617675,0 0.631711,-0.04211 0.631711,-1.895137 v -1.895147 h -1.263428 -1.263426 v -1.26342 c 0,-1.179206 0.04211,-1.263428 0.631713,-1.263428 0.50537,0 0.631713,-0.126343 0.631713,-0.631717 0,-0.505366 -0.126343,-0.631713 -0.631713,-0.631713 -0.50536,0 -0.631713,-0.126342 -0.631713,-0.631707 0,-0.589606 0.08423,-0.631717 1.263426,-0.631717 1.179197,0 1.263428,0.04211 1.263428,0.631717 0,0.505365 0.126343,0.631707 0.631717,0.631707 0.505366,0 0.631709,0.126347 0.631709,0.631713 0,0.5896 0.08423,0.631717 1.263428,0.631717 1.179198,0 1.26343,0.0421 1.26343,0.631716 0,0.617676 -0.04211,0.631712 -1.895147,0.631712 -1.853016,0 -1.895137,0.01405 -1.895137,0.631717 0,0.589597 0.08423,0.631703 1.263426,0.631703 1.179206,0 1.263428,0.04211 1.263428,0.631717 0,0.505375 0.126343,0.631717 0.631717,0.631717 0.505374,0 0.631713,0.126338 0.631713,0.631713 0,0.505374 -0.126339,0.631717 -0.631713,0.631717 -0.505374,0 -0.631717,-0.126343 -0.631717,-0.631717 0,-0.505375 -0.126342,-0.631713 -0.631717,-0.631713 -0.617675,0 -0.631711,0.04211 -0.631711,1.895146 0,1.853017 -0.01405,1.895132 -0.631709,1.895132 -0.505374,0 -0.631717,0.126343 -0.631717,0.631717 0,0.589597 0.08423,0.631717 1.263426,0.631717 h 1.263428 v -1.263434 c 0,-1.179192 0.04211,-1.263428 0.631717,-1.263428 0.589596,0 0.631713,0.08423 0.631713,1.263428 0,1.179198 -0.04211,1.263434 -0.631713,1.263434 -0.589602,0 -0.631717,0.08423 -0.631717,1.26342 0,1.179207 0.04211,1.26343 0.631717,1.26343 0.505374,0 0.631713,0.126341 0.631713,0.631717 0,0.505374 -0.126339,0.631713 -0.631713,0.631713 -0.505374,0 -0.631717,-0.126339 -0.631717,-0.631713 0,-0.505376 -0.126342,-0.631717 -0.631717,-0.631717 -0.505365,0 -0.631711,-0.126343 -0.631711,-0.631713 0,-0.505366 -0.126343,-0.631717 -0.631709,-0.631717 -0.589596,0 -0.631717,0.08423 -0.631717,1.26343 0,1.179198 0.04211,1.26343 0.631717,1.26343 0.505366,0 0.631709,0.126342 0.631709,0.631717 0,0.505365 0.126346,0.631707 0.631711,0.631707 0.505375,0 0.631717,0.126348 0.631717,0.631713 0,0.505374 0.126343,0.631716 0.631717,0.631716 0.589596,0 0.631713,0.08423 0.631713,1.26343 0,1.179197 -0.04211,1.26342 -0.631713,1.26342 -0.505374,0 -0.631717,0.126351 -0.631717,0.631716 0,0.505374 0.126343,0.631717 0.631717,0.631717 0.617675,0 0.631713,0.04211 0.631713,1.895146 0,1.853017 -0.01405,1.895133 -0.631713,1.895133 -0.589602,0 -0.631717,-0.08423 -0.631717,-1.26343 0,-1.179198 -0.04211,-1.263419 -0.631717,-1.263419 -0.589596,0 -0.631711,0.08423 -0.631711,1.263419 v 1.26343 h -1.263426 c -1.179192,0 -1.263428,-0.04211 -1.263428,-0.631713 0,-0.505365 0.126342,-0.631717 0.631717,-0.631717 0.505374,0 0.631711,-0.126342 0.631711,-0.631703 0,-0.505374 -0.126337,-0.631716 -0.631711,-0.631716 -0.617676,0 -0.631717,-0.04211 -0.631717,-1.895147 0,-1.85303 -0.01405,-1.895136 -0.631713,-1.895136 -0.617675,0 -0.631713,0.04211 -0.631713,1.895136 0,1.853031 -0.01405,1.895147 -0.631707,1.895147 -0.505374,0 -0.631713,-0.126343 -0.631713,-0.631717 0,-0.505375 -0.126342,-0.631713 -0.631716,-0.631713 -0.505375,0 -0.631716,-0.126343 -0.631716,-0.631717 0,-0.505365 -0.126339,-0.631716 -0.631713,-0.631716 -0.589602,0 -0.631717,0.08423 -0.631717,1.263433 0,1.179194 -0.04211,1.26343 -0.631707,1.26343 -0.505375,0 -0.631713,0.126342 -0.631713,0.631716 0,0.617667 -0.04211,0.631703 -1.895147,0.631703 H 52.033271 V 45.159606 43.26446 h 1.26342 c 1.179206,0 1.263428,-0.04211 1.263428,-0.631704 0,-0.58961 -0.08423,-0.631716 -1.263428,-0.631716 -1.179198,0 -1.26342,-0.04211 -1.26342,-0.631713 0,-0.61768 -0.04211,-0.631717 -1.895147,-0.631717 -1.853016,0 -1.895137,0.01405 -1.895137,0.631717 0,0.589597 0.08423,0.631713 1.26342,0.631713 h 1.263434 v 1.26342 c 0,1.179207 -0.04211,1.263433 -0.631717,1.263433 -0.505365,0 -0.631717,-0.126343 -0.631717,-0.631717 0,-0.589596 -0.08423,-0.631716 -1.26342,-0.631716 h -1.263428 v -1.26342 c 0,-1.179208 -0.04211,-1.26343 -0.631717,-1.26343 -0.589598,0 -0.631713,0.08423 -0.631713,1.26343 0,1.179197 -0.04211,1.26342 -0.631707,1.26342 -0.589598,0 -0.631717,0.08423 -0.631717,1.263433 0,1.179194 -0.04211,1.26343 -0.631713,1.26343 -0.589601,0 -0.631717,0.08423 -0.631717,1.263419 v 1.26343 h 1.26343 c 1.179198,0 1.263424,0.04211 1.263424,0.631716 0,0.505374 0.126347,0.631717 0.631713,0.631717 0.5896,0 0.631717,-0.08423 0.631717,-1.263433 0,-1.179194 -0.04211,-1.26343 -0.631717,-1.26343 -0.589598,0 -0.631713,-0.08423 -0.631713,-1.263419 0,-1.179207 0.04211,-1.26343 0.631713,-1.26343 0.5896,0 0.631717,0.08423 0.631717,1.26343 0,1.179198 0.0421,1.263419 0.631715,1.263419 0.589598,0 0.631713,0.08423 0.631713,1.26343 0,1.179197 -0.04211,1.263433 -0.631713,1.263433 -0.505373,0 -0.631715,0.126342 -0.631715,0.631713 0,0.505364 0.126342,0.631707 0.631715,0.631707 0.505375,0 0.631713,0.126352 0.631713,0.631717 0,0.589597 0.08423,0.631713 1.26342,0.631713 h 1.263434 v -1.26343 c 0,-1.179197 -0.04211,-1.26342 -0.631717,-1.26342 -0.505365,0 -0.631717,-0.126343 -0.631717,-0.631717 0,-0.589596 0.08423,-0.631716 1.263434,-0.631716 1.179194,0 1.26343,0.04211 1.26343,0.631716 0,0.589602 0.08423,0.631717 1.26342,0.631717 1.179206,0 1.263428,-0.04211 1.263428,-0.631717 0,-0.505374 0.126343,-0.631716 0.631717,-0.631716 0.505374,0 0.631717,0.126342 0.631717,0.631716 0,0.505374 0.126338,0.631717 0.631713,0.631717 0.505364,0 0.631707,0.126342 0.631707,0.631713 0,0.505364 0.126351,0.631707 0.631717,0.631707 0.589596,0 0.631713,-0.08423 0.631713,-1.26342 0,-1.179207 -0.04211,-1.263433 -0.631713,-1.263433 -0.505366,0 -0.631717,-0.126338 -0.631717,-0.631713 0,-0.505365 0.126351,-0.631717 0.631717,-0.631717 0.505374,0 0.631713,0.126352 0.631713,0.631717 0,0.505375 0.126341,0.631713 0.631716,0.631713 0.505374,0 0.631716,-0.126338 0.631716,-0.631713 0,-0.505365 0.126339,-0.631717 0.631713,-0.631717 0.589601,0 0.631707,0.08423 0.631707,1.26343 v 1.263433 h 1.263426 c 1.179197,0 1.263428,0.04211 1.263428,0.631713 0,0.505364 -0.126337,0.631707 -0.631711,0.631707 -0.505375,0 -0.631717,0.126352 -0.631717,0.631717 0,0.505374 -0.126343,0.631713 -0.631713,0.631713 -0.50536,0 -0.631713,0.126342 -0.631713,0.631716 0,0.505375 0.126353,0.631717 0.631713,0.631717 0.50537,0 0.631713,0.126338 0.631713,0.631712 0,0.589602 -0.08423,0.631708 -1.263426,0.631708 -1.179197,0 -1.26342,-0.0421 -1.26342,-0.631708 0,-0.589605 -0.08423,-0.631712 -1.263432,-0.631712 -1.179194,0 -1.26343,0.04211 -1.26343,0.631712 0,0.505366 -0.126343,0.631708 -0.631707,0.631708 -0.505375,0 -0.631713,0.126351 -0.631713,0.631712 v 0.631717 h 3.158566 3.158562 v 0.631717 c 0,0.505374 0.126342,0.631713 0.631717,0.631713 0.505374,0 0.631711,-0.126339 0.631711,-0.631713 0,-0.505375 0.126343,-0.631717 0.631717,-0.631717 0.505366,0 0.631709,0.126342 0.631709,0.631717 0,0.505374 -0.126343,0.631713 -0.631709,0.631713 -0.505374,0 -0.631717,0.126342 -0.631717,0.631716 0,0.505365 0.126343,0.631708 0.631717,0.631708 0.505366,0 0.631709,0.126347 0.631709,0.631712 0,0.505375 0.126346,0.631717 0.631711,0.631717 0.589602,0 0.631717,-0.08423 0.631717,-1.263429 0,-1.179198 0.04211,-1.263424 0.631717,-1.263424 0.589596,0 0.631713,0.08423 0.631713,1.263424 0,1.179202 -0.04211,1.263429 -0.631713,1.263429 -0.61768,0 -0.631717,0.04211 -0.631717,1.895146 0,1.853016 0.01405,1.895137 0.631717,1.895137 0.589596,0 0.631713,0.08423 0.631713,1.263429 0,1.179197 -0.04211,1.26342 -0.631713,1.26342 -0.505374,0 -0.631717,0.126352 -0.631717,0.631717 0,0.505375 -0.126342,0.631712 -0.631717,0.631712 -0.505365,0 -0.631711,-0.126337 -0.631711,-0.631712 0,-0.505365 -0.126343,-0.631717 -0.631709,-0.631717 -0.505374,0 -0.631717,0.126352 -0.631717,0.631717 0,0.505375 -0.126337,0.631712 -0.631711,0.631712 -0.505375,0 -0.631717,-0.126337 -0.631717,-0.631712 0,-0.505365 -0.126343,-0.631717 -0.631713,-0.631717 -0.50536,0 -0.631713,-0.126342 -0.631713,-0.631704 0,-0.505373 0.126353,-0.631716 0.631713,-0.631716 0.50537,0 0.631713,0.126343 0.631713,0.631716 0,0.505362 0.126342,0.631704 0.631717,0.631704 0.617675,0 0.631711,-0.0421 0.631711,-1.895137 v -1.895146 h -2.526854 -2.526852 v 0.631717 c 0,0.505374 0.126341,0.631717 0.631716,0.631717 0.589597,0 0.631716,0.08423 0.631716,1.263429 0,1.179197 -0.0421,1.26342 -0.631716,1.26342 -0.505375,0 -0.631716,0.126352 -0.631716,0.631717 0,0.617675 -0.04211,0.631712 -1.895137,0.631712 -1.853026,0 -1.895147,-0.01405 -1.895147,-0.631712 0,-0.505365 -0.126338,-0.631717 -0.631713,-0.631717 -0.505364,0 -0.631715,0.126352 -0.631715,0.631717 v 0.631712 h -3.158567 -3.158565 v -1.263429 c 0,-1.179198 0.0421,-1.26342 0.631715,-1.26342 0.505375,0 0.631713,-0.126342 0.631713,-0.631717 0,-0.589597 0.08423,-0.631712 1.26342,-0.631712 1.179207,0 1.263434,-0.04211 1.263434,-0.631717 0,-0.505365 0.126338,-0.631717 0.631713,-0.631717 0.505374,0 0.631717,0.126352 0.631717,0.631717 0,0.505374 0.126341,0.631717 0.631716,0.631717 0.505361,0 0.631704,0.126338 0.631704,0.631712 0,0.505375 0.126351,0.631717 0.631715,0.631717 0.505375,0 0.631713,0.126343 0.631713,0.631716 0,0.589598 0.08423,0.631704 1.263434,0.631704 1.179198,0 1.26342,-0.0421 1.26342,-0.631704 0,-0.505373 0.126351,-0.631716 0.631717,-0.631716 0.505374,0 0.631713,-0.126342 0.631713,-0.631717 0,-0.617676 -0.04211,-0.631712 -1.895137,-0.631712 -1.853026,0 -1.895147,-0.01405 -1.895147,-0.631717 0,-0.505365 0.126343,-0.631717 0.631717,-0.631717 h 0.631717 v -3.158566 -3.158566 h -0.631717 c -0.505374,0 -0.631717,-0.126343 -0.631717,-0.631717 0,-0.505361 -0.126338,-0.631712 -0.631713,-0.631712 -0.505364,0 -0.631715,-0.126342 -0.631715,-0.631708 0,-0.505374 -0.126343,-0.631712 -0.631704,-0.631712 -0.505375,0 -0.631716,-0.126342 -0.631716,-0.631717 0,-0.505374 -0.126343,-0.631716 -0.631717,-0.631716 -0.589598,0 -0.631713,0.08423 -0.631713,1.263433 0,1.179193 0.04211,1.26342 0.631713,1.26342 0.505374,0 0.631717,0.126351 0.631717,0.631712 0,0.589602 -0.08423,0.631717 -1.26343,0.631717 h -1.263434 v 1.26343 c 0,1.179198 -0.04211,1.263424 -0.631703,1.263424 -0.505374,0 -0.631717,0.126347 -0.631717,0.631712 0,0.505375 -0.126338,0.631717 -0.631713,0.631717 -0.505373,0 -0.631715,-0.126342 -0.631715,-0.631717 0,-0.505365 -0.126343,-0.631712 -0.631717,-0.631712 -0.505366,0 -0.631713,-0.126343 -0.631713,-0.631708 0,-0.617676 -0.04211,-0.631716 -1.895137,-0.631716 h -1.895143 v 1.263424 1.263429 h 1.895143 c 1.853026,0 1.895137,0.01405 1.895137,0.631712 0,0.505374 0.126347,0.631717 0.631713,0.631717 0.5896,0 0.631717,0.08423 0.631717,1.26342 0,1.179208 -0.04211,1.263434 -0.631717,1.263434 -0.589598,0 -0.631713,0.08423 -0.631713,1.263429 0,1.179197 -0.04211,1.26342 -0.631707,1.26342 -0.505375,0 -0.631717,0.126352 -0.631717,0.631717 0,0.589597 -0.08423,0.631712 -1.26343,0.631712 -1.179195,0 -1.263426,-0.04211 -1.263426,-0.631712 0,-0.505365 -0.126343,-0.631717 -0.631709,-0.631717 -0.505374,0 -0.631711,-0.126342 -0.631711,-0.631704 0,-0.505373 -0.126343,-0.631716 -0.631717,-0.631716 -0.589597,0 -0.631717,0.08423 -0.631717,1.26342 0,1.179207 -0.04211,1.263429 -0.631713,1.263429 -0.505365,0 -0.631717,-0.126337 -0.631717,-0.631712 0,-0.589601 -0.08423,-0.631717 -1.263421,-0.631717 -1.179198,0 -1.263429,0.04211 -1.263429,0.631717 0,0.589597 -0.08423,0.631712 -1.263434,0.631712 -1.179194,0 -1.263429,-0.04211 -1.263429,-0.631712 0,-0.505365 -0.126343,-0.631717 -0.631704,-0.631717 -0.505374,0 -0.631716,0.126352 -0.631716,0.631717 0,0.505375 -0.126343,0.631712 -0.631717,0.631712 -0.589597,0 -0.631712,-0.08423 -0.631712,-1.263429 0,-1.179198 -0.04211,-1.26342 -0.631717,-1.26342 -0.505366,0 -0.631717,0.126343 -0.631717,0.631716 0,0.505362 -0.126338,0.631704 -0.631703,0.631704 -0.505374,0 -0.631717,0.126352 -0.631717,0.631717 0,0.505375 -0.126338,0.631712 -0.631713,0.631712 -0.617678,0 -0.631717,-0.04211 -0.631717,-1.895133 0,-1.85303 0.01404,-1.895145 0.631717,-1.895145 0.505375,0 0.631713,-0.126343 0.631713,-0.631717 0,-0.589596 -0.08423,-0.631717 -1.26343,-0.631717 -1.1792,0 -1.263427,-0.04211 -1.263427,-0.631703 0,-0.505375 0.126343,-0.631717 0.631714,-0.631717 0.50537,0 0.631713,-0.126343 0.631713,-0.631717 0,-0.505369 0.126343,-0.631712 0.631717,-0.631712 0.505375,0 0.631713,0.126343 0.631713,0.631712 0,0.505374 0.126343,0.631717 0.631717,0.631717 0.589596,0 0.631703,-0.08423 0.631703,-1.263429 0,-1.179198 -0.04211,-1.263429 -0.631703,-1.263429 -0.505374,0 -0.631717,-0.126343 -0.631717,-0.631708 0,-0.505374 -0.126338,-0.631716 -0.631713,-0.631716 -0.505374,0 -0.631717,-0.126339 -0.631717,-0.631713 0,-0.505375 -0.126343,-0.631717 -0.631713,-0.631717 -0.617677,0 -0.631714,0.04211 -0.631714,1.895146 0,1.853021 -0.01404,1.895137 -0.631714,1.895137 -0.505371,0 -0.631714,-0.126342 -0.631714,-0.631717 0,-0.505365 -0.126341,-0.631712 -0.631713,-0.631712 -0.5896,0 -0.631714,0.08423 -0.631714,1.263429 0,1.179197 0.04211,1.263429 0.631714,1.263429 0.505372,0 0.631713,0.126342 0.631713,0.631717 0,0.505366 -0.126341,0.631703 -0.631713,0.631703 -0.505371,0 -0.631714,-0.126337 -0.631714,-0.631703 0,-0.58961 -0.08423,-0.631717 -1.263426,-0.631717 -1.179199,0 -1.263429,0.04211 -1.263429,0.631717 0,0.505366 0.126343,0.631703 0.631715,0.631703 0.50537,0 0.631714,0.126352 0.631714,0.631717 0,0.505374 0.126343,0.631717 0.631712,0.631717 0.505372,0 0.631714,0.126338 0.631714,0.631712 0,0.505375 -0.126342,0.631717 -0.631714,0.631717 -0.505369,0 -0.631712,0.126343 -0.631712,0.631716 0,0.505362 -0.126344,0.631704 -0.631714,0.631704 -0.505372,0 -0.631715,0.126352 -0.631715,0.631717 0,0.505375 -0.126342,0.631712 -0.631713,0.631712 -0.505371,0 -0.631713,-0.126337 -0.631713,-0.631712 0,-0.505365 -0.126343,-0.631717 -0.631714,-0.631717 -0.505371,0 -0.631714,0.126352 -0.631714,0.631717 v 0.631712 h -3.790282 -3.790282 z m 2.526855,0.631716 c 0,-0.505373 0.126343,-0.631716 0.631714,-0.631716 0.5896,0 0.631713,-0.08423 0.631713,-1.263429 v -1.263434 h -1.263427 -1.263427 v 1.895146 c 0,1.853031 0.01404,1.895137 0.631714,1.895137 0.505371,0 0.631713,-0.126342 0.631713,-0.631704 z m 3.790282,0 c 0,-0.505373 -0.126342,-0.631716 -0.631714,-0.631716 -0.505371,0 -0.631713,0.126343 -0.631713,0.631716 0,0.505362 0.126342,0.631704 0.631713,0.631704 0.505372,0 0.631714,-0.126342 0.631714,-0.631704 z m 3.790281,0 c 0,-0.505373 0.126343,-0.631716 0.631715,-0.631716 0.50537,0 0.631714,-0.126342 0.631714,-0.631717 0,-0.589597 -0.08422,-0.631712 -1.263429,-0.631712 h -1.263426 v 1.263429 c 0,1.179197 0.04212,1.26342 0.631713,1.26342 0.505371,0 0.631713,-0.126342 0.631713,-0.631704 z m 13.897699,0 c 0,-0.505373 -0.126338,-0.631716 -0.631713,-0.631716 -0.505364,0 -0.631716,0.126343 -0.631716,0.631716 0,0.505362 0.126352,0.631704 0.631716,0.631704 0.505375,0 0.631713,-0.126342 0.631713,-0.631704 z m 10.107424,-1.895145 v -2.526854 h -0.631713 -0.631717 v 2.526854 2.526849 h 0.631717 0.631713 z m 5.053702,1.895145 c 0,-0.505373 -0.126337,-0.631716 -0.631703,-0.631716 -0.505374,0 -0.631717,0.126343 -0.631717,0.631716 0,0.505362 0.126343,0.631704 0.631717,0.631704 0.505366,0 0.631703,-0.126342 0.631703,-0.631704 z m 2.526864,0 c 0,-0.505373 -0.126343,-0.631716 -0.631717,-0.631716 -0.505375,0 -0.631713,0.126343 -0.631713,0.631716 0,0.505362 0.126338,0.631704 0.631713,0.631704 0.505374,0 0.631717,-0.126342 0.631717,-0.631704 z m 13.897692,-0.631716 c 0,-1.179207 -0.04211,-1.263429 -0.631717,-1.263429 -0.589596,0 -0.631711,0.08423 -0.631711,1.263429 0,1.179197 0.0421,1.26342 0.631711,1.26342 0.589602,0 0.631717,-0.08423 0.631717,-1.26342 z M 31.818432,64.111015 c 0,-0.505374 -0.126343,-0.631712 -0.631717,-0.631712 -0.589597,0 -0.631712,-0.08423 -0.631712,-1.263434 0,-1.179193 -0.04211,-1.26342 -0.631717,-1.26342 -0.589596,0 -0.631717,0.08423 -0.631717,1.26342 0,1.179208 0.04211,1.263434 0.631717,1.263434 0.505374,0 0.631717,0.126338 0.631717,0.631712 0,0.505375 0.126337,0.631717 0.631712,0.631717 0.505374,0 0.631717,-0.126342 0.631717,-0.631717 z m 6.317133,0 c 0,-0.505374 0.126352,-0.631712 0.631717,-0.631712 0.505375,0 0.631713,-0.126343 0.631713,-0.631717 0,-0.505365 0.126342,-0.631717 0.631717,-0.631717 0.589596,0 0.631717,0.08423 0.631717,1.263434 0,1.179194 0.0421,1.263429 0.631711,1.263429 0.589602,0 0.631709,-0.08423 0.631709,-1.263429 0,-1.179198 -0.04211,-1.263434 -0.631709,-1.263434 -0.505374,0 -0.631711,-0.126337 -0.631711,-0.631703 0,-0.505375 -0.126343,-0.631717 -0.631717,-0.631717 -0.589597,0 -0.631717,-0.08423 -0.631717,-1.263429 0,-1.179198 0.04211,-1.263429 0.631717,-1.263429 0.505374,0 0.631717,-0.126343 0.631717,-0.631708 0,-0.58961 -0.08423,-0.631716 -1.263434,-0.631716 -1.179194,0 -1.26343,-0.04211 -1.26343,-0.631713 0,-0.505375 0.126352,-0.631717 0.631717,-0.631717 0.589598,0 0.631713,-0.08423 0.631713,-1.263429 0,-1.179198 -0.04211,-1.26342 -0.631713,-1.26342 -0.505365,0 -0.631717,0.126338 -0.631717,0.631712 0,0.505366 -0.126342,0.631708 -0.631703,0.631708 -0.505376,0 -0.631718,-0.126342 -0.631718,-0.631708 0,-0.589605 -0.08423,-0.631712 -1.263429,-0.631712 -1.179208,0 -1.263434,-0.0421 -1.263434,-0.631717 0,-0.505374 0.126343,-0.631716 0.631717,-0.631716 0.505374,0 0.631717,-0.126339 0.631717,-0.631713 0,-0.505365 -0.126343,-0.631717 -0.631717,-0.631717 -0.589596,0 -0.631717,-0.08423 -0.631717,-1.26342 v -1.263433 h -2.526849 -2.526863 v 0.631716 c 0,0.505374 -0.126338,0.631717 -0.631703,0.631717 -0.505374,0 -0.631717,0.126342 -0.631717,0.631713 0,0.505364 0.126343,0.631707 0.631717,0.631707 0.505365,0 0.631703,-0.126343 0.631703,-0.631707 0,-0.505371 0.126351,-0.631713 0.631717,-0.631713 0.505374,0 0.631717,0.126342 0.631717,0.631713 0,0.505364 0.126337,0.631707 0.631712,0.631707 0.505374,0 0.631717,-0.126343 0.631717,-0.631707 0,-0.505371 0.126342,-0.631713 0.631716,-0.631713 0.505361,0 0.631704,0.126342 0.631704,0.631713 0,0.505364 0.126352,0.631707 0.631716,0.631707 0.505375,0 0.631713,0.126352 0.631713,0.631717 0,0.505374 -0.126338,0.631713 -0.631713,0.631713 -0.5896,0 -0.631716,0.08423 -0.631716,1.263433 0,1.179193 -0.04211,1.26342 -0.631704,1.26342 -0.505374,0 -0.631716,0.126351 -0.631716,0.631712 v 0.631717 h 2.526849 2.526863 v 0.631717 c 0,0.505374 0.126342,0.631713 0.631718,0.631713 h 0.631703 v 3.158565 3.158571 h -0.631703 c -0.505376,0 -0.631718,0.126338 -0.631718,0.631712 0,0.505375 0.126342,0.631717 0.631718,0.631717 0.505361,0 0.631703,-0.126342 0.631703,-0.631717 z M 17.920728,62.847586 c 0,-0.505365 0.126343,-0.631717 0.631714,-0.631717 0.589599,0 0.631714,-0.08423 0.631714,-1.26342 V 59.68902 h -1.263428 -1.263427 v 1.895146 c 0,1.853016 0.01404,1.895137 0.631715,1.895137 0.505369,0 0.631712,-0.126343 0.631712,-0.631717 z m 17.687987,0 c 0,-0.589596 -0.08423,-0.631717 -1.263434,-0.631717 -1.179194,0 -1.263429,0.04211 -1.263429,0.631717 0,0.589596 0.08423,0.631717 1.263429,0.631717 1.179207,0 1.263434,-0.04211 1.263434,-0.631717 z m 0,-3.790283 v -1.895136 h -1.895147 -1.895136 v 1.895136 1.895146 h 1.895136 1.895147 z m -2.526863,0 c 0,-0.505365 0.126352,-0.631712 0.631716,-0.631712 0.505375,0 0.631713,0.126347 0.631713,0.631712 0,0.505375 -0.126338,0.631717 -0.631713,0.631717 -0.505364,0 -0.631716,-0.126342 -0.631716,-0.631717 z m 27.795403,0 v -1.895136 h -1.895136 -1.895146 v 1.895136 1.895146 h 1.895146 1.895136 z m -2.526852,0 c 0,-0.505365 0.126341,-0.631712 0.631716,-0.631712 0.505374,0 0.631716,0.126347 0.631716,0.631712 0,0.505375 -0.126342,0.631717 -0.631716,0.631717 -0.505375,0 -0.631716,-0.126342 -0.631716,-0.631717 z m 6.317132,1.263429 c 0,-0.505369 -0.126343,-0.631712 -0.631709,-0.631712 -0.505374,0 -0.631717,-0.126342 -0.631717,-0.631717 0,-0.505365 -0.126337,-0.631712 -0.631711,-0.631712 -0.505375,0 -0.631717,0.126347 -0.631717,0.631712 0,0.505375 0.126342,0.631717 0.631717,0.631717 0.505374,0 0.631711,0.126343 0.631711,0.631712 0,0.505374 0.126343,0.631717 0.631717,0.631717 0.505366,0 0.631709,-0.126343 0.631709,-0.631717 z M 30.555003,57.162167 v -1.26343 h -1.263434 c -1.179194,0 -1.26342,-0.04211 -1.26342,-0.631717 0,-0.589596 0.08423,-0.631712 1.26342,-0.631712 h 1.263434 v -1.26342 c 0,-1.179207 -0.04211,-1.263433 -0.631717,-1.263433 -0.505366,0 -0.631717,0.126342 -0.631717,0.631716 0,0.505375 -0.126338,0.631717 -0.631703,0.631717 -0.505374,0 -0.631717,-0.126342 -0.631717,-0.631717 v -0.631716 h -2.526857 -2.526855 v -0.631713 c 0,-0.505365 0.126343,-0.631717 0.631714,-0.631717 0.505372,0 0.631713,-0.126343 0.631713,-0.631707 0,-0.505371 0.126343,-0.631713 0.631714,-0.631713 0.505371,0 0.631714,0.126342 0.631714,0.631713 0,0.505364 0.126343,0.631707 0.631714,0.631707 0.50537,0 0.631713,-0.126343 0.631713,-0.631707 0,-0.505371 -0.126343,-0.631713 -0.631713,-0.631713 -0.505371,0 -0.631714,-0.126343 -0.631714,-0.631717 0,-0.505374 -0.126343,-0.631716 -0.631714,-0.631716 -0.505371,0 -0.631714,0.126342 -0.631714,0.631716 0,0.617676 -0.04211,0.631717 -1.895141,0.631717 h -1.895141 v -1.263433 -1.26343 h -1.263426 -1.263428 v -1.895136 c 0,-1.853026 0.01404,-1.895146 0.631714,-1.895146 0.505371,0 0.631714,0.126351 0.631714,0.631716 0,0.505374 0.126342,0.631717 0.631713,0.631717 0.505371,0 0.631713,0.126338 0.631713,0.631713 0,0.589601 0.08422,0.631717 1.263429,0.631717 1.179197,0 1.263426,0.0421 1.263426,0.631716 0,0.505361 0.126343,0.631703 0.631714,0.631703 0.505372,0 0.631713,-0.126342 0.631713,-0.631703 0,-0.58961 0.08422,-0.631716 1.263428,-0.631716 1.179199,0 1.263427,-0.04211 1.263427,-0.631717 0,-0.505375 -0.126343,-0.631713 -0.631713,-0.631713 -0.505371,0 -0.631714,-0.126343 -0.631714,-0.631717 0,-0.589596 -0.08422,-0.631716 -1.263428,-0.631716 -1.179198,0 -1.263427,-0.04211 -1.263427,-0.631704 0,-0.505374 0.126343,-0.631716 0.631714,-0.631716 0.589599,0 0.631713,-0.08423 0.631713,-1.26343 0,-1.179198 0.04211,-1.263429 0.631714,-1.263429 0.505371,0 0.631714,-0.126342 0.631714,-0.631707 0,-0.505375 0.126343,-0.631717 0.631714,-0.631717 0.50537,0 0.631713,0.126342 0.631713,0.631717 0,0.505365 0.126343,0.631707 0.631717,0.631707 0.505375,0 0.631713,0.126348 0.631713,0.631713 0,0.505374 -0.126338,0.631716 -0.631713,0.631716 -0.505374,0 -0.631717,0.126343 -0.631717,0.631717 0,0.505375 0.126343,0.631713 0.631717,0.631713 0.505375,0 0.631713,-0.126338 0.631713,-0.631713 0,-0.505374 0.126343,-0.631717 0.631717,-0.631717 0.505365,0 0.631703,0.126343 0.631703,0.631717 0,0.589597 0.08423,0.631713 1.263434,0.631713 1.179193,0 1.263429,-0.04211 1.263429,-0.631713 0,-0.505374 0.126342,-0.631717 0.631716,-0.631717 0.505361,0 0.631704,-0.126342 0.631704,-0.631716 0,-0.505365 0.126352,-0.631713 0.631716,-0.631713 0.589598,0 0.631713,-0.08423 0.631713,-1.263424 0,-1.179204 -0.04211,-1.26343 -0.631713,-1.26343 -0.5896,0 -0.631716,0.08423 -0.631716,1.26343 0,1.179198 -0.04211,1.263424 -0.631704,1.263424 -0.505374,0 -0.631716,0.126348 -0.631716,0.631713 0,0.505374 -0.126343,0.631716 -0.631717,0.631716 -0.505375,0 -0.631712,-0.126342 -0.631712,-0.631716 0,-0.505365 -0.126343,-0.631713 -0.631717,-0.631713 -0.505366,0 -0.631717,-0.126342 -0.631717,-0.631707 0,-0.505375 0.126351,-0.631717 0.631717,-0.631717 0.505374,0 0.631717,-0.126339 0.631717,-0.631713 0,-0.505376 -0.126343,-0.631717 -0.631717,-0.631717 -0.505366,0 -0.631717,-0.126343 -0.631717,-0.631713 0,-0.505366 0.126351,-0.631717 0.631717,-0.631717 0.505374,0 0.631717,-0.126342 0.631717,-0.631707 0,-0.505375 -0.126343,-0.631713 -0.631717,-0.631713 -0.505366,0 -0.631717,0.126338 -0.631717,0.631713 0,0.589601 -0.08423,0.631707 -1.26342,0.631707 -1.179207,0 -1.26343,-0.0421 -1.26343,-0.631707 0,-0.505375 0.126343,-0.631713 0.631717,-0.631713 0.505375,0 0.631713,-0.126342 0.631713,-0.631717 0,-0.505374 0.126343,-0.631717 0.631717,-0.631717 0.505365,0 0.631703,-0.126338 0.631703,-0.631711 0,-0.505366 0.126351,-0.631717 0.631717,-0.631717 0.589596,0 0.631717,-0.08423 0.631717,-1.26342 v -1.26343 h 1.263429 c 1.179198,0 1.26342,0.04211 1.26342,0.631713 0,0.617679 0.0421,0.631717 1.895146,0.631717 1.85303,0 1.895146,-0.01405 1.895146,-0.631717 0,-0.505375 -0.126343,-0.631713 -0.631717,-0.631713 -0.505375,0 -0.631712,-0.126342 -0.631712,-0.631717 0,-0.505365 0.126337,-0.631717 0.631712,-0.631717 0.505374,0 0.631717,-0.126337 0.631717,-0.631703 0,-0.505374 0.126342,-0.631717 0.631718,-0.631717 0.505361,0 0.631703,0.126343 0.631703,0.631717 0,0.505366 0.126352,0.631703 0.631717,0.631703 0.505375,0 0.631713,0.126352 0.631713,0.631717 0,0.505375 -0.126338,0.631717 -0.631713,0.631717 -0.617675,0 -0.631717,0.04211 -0.631717,1.895146 0,1.853017 -0.01405,1.895132 -0.631703,1.895132 -0.505376,0 -0.631718,0.126343 -0.631718,0.631717 0,0.505375 0.126342,0.631717 0.631718,0.631717 0.505361,0 0.631703,-0.126342 0.631703,-0.631717 0,-0.505374 0.126352,-0.631717 0.631717,-0.631717 0.589598,0 0.631713,0.08423 0.631713,1.263434 0,1.179193 0.04211,1.26342 0.631717,1.26342 0.505374,0 0.631717,0.126351 0.631717,0.631717 0,0.589596 0.08423,0.631713 1.26342,0.631713 1.179204,0 1.263426,0.0421 1.263426,0.631717 0,0.617676 0.04211,0.631713 1.895147,0.631713 1.85302,0 1.895137,-0.01405 1.895137,-0.631713 0,-0.505376 0.126342,-0.631717 0.631715,-0.631717 0.505375,0 0.631713,-0.126343 0.631713,-0.631713 0,-0.505366 0.126343,-0.631717 0.631717,-0.631717 0.589596,0 0.631703,0.08423 0.631703,1.26343 0,1.179198 -0.04211,1.26343 -0.631703,1.26343 -0.505374,0 -0.631717,0.126342 -0.631717,0.631717 v 0.631707 h 2.526854 2.52685 v 0.631713 c 0,0.505374 0.126351,0.631716 0.631715,0.631716 0.505375,0 0.631713,0.126343 0.631713,0.631717 0,0.505375 0.126343,0.631713 0.631717,0.631713 0.505374,0 0.631717,0.126342 0.631717,0.631716 0,0.505366 -0.126343,0.631704 -0.631717,0.631704 -0.505374,0 -0.631717,0.126351 -0.631717,0.631716 0,0.505374 -0.126338,0.631717 -0.631713,0.631717 -0.505364,0 -0.631715,0.126338 -0.631715,0.631713 0,0.589601 0.08423,0.631717 1.263428,0.631717 h 1.263434 v -1.26343 c 0,-1.179197 0.04211,-1.263433 0.631713,-1.263433 0.505364,0 0.631707,-0.126338 0.631707,-0.631704 0,-0.505374 0.126351,-0.631716 0.631717,-0.631716 0.505374,0 0.631713,0.126342 0.631713,0.631716 0,0.505366 0.126341,0.631704 0.631716,0.631704 0.505374,0 0.631716,-0.126338 0.631716,-0.631704 0,-0.505374 -0.126342,-0.631716 -0.631716,-0.631716 -0.589597,0 -0.631716,-0.08423 -0.631716,-1.26343 0,-1.179198 0.04211,-1.263429 0.631716,-1.263429 0.505374,0 0.631716,0.126348 0.631716,0.631713 v 0.631716 h 2.526846 2.526854 v -0.631716 c 0,-0.617675 -0.04211,-0.631713 -1.895137,-0.631713 -1.853026,0 -1.895143,-0.01405 -1.895143,-0.631707 0,-0.505375 0.126353,-0.631717 0.631713,-0.631717 0.50537,0 0.631713,-0.126339 0.631713,-0.631713 0,-0.505376 -0.126343,-0.631717 -0.631713,-0.631717 -0.50536,0 -0.631713,0.126341 -0.631713,0.631717 0,0.589597 -0.08423,0.631713 -1.26342,0.631713 -1.179198,0 -1.263432,0.04211 -1.263432,0.631717 0,0.505365 -0.126339,0.631707 -0.631713,0.631707 -0.589602,0 -0.631717,0.08423 -0.631717,1.263429 0,1.179199 -0.04211,1.26343 -0.631707,1.26343 -0.505375,0 -0.631713,-0.126338 -0.631713,-0.631713 0,-0.505374 -0.126343,-0.631717 -0.631717,-0.631717 -0.505374,0 -0.631717,-0.126342 -0.631717,-0.631716 0,-0.505365 0.126343,-0.631713 0.631717,-0.631713 0.505374,0 0.631717,-0.126342 0.631717,-0.631707 0,-0.505375 0.126338,-0.631717 0.631713,-0.631717 0.505364,0 0.631707,-0.126339 0.631707,-0.631713 0,-0.589602 -0.08423,-0.631717 -1.26342,-0.631717 -1.179198,0 -1.263434,-0.04211 -1.263434,-0.631713 0,-0.505366 -0.126338,-0.631717 -0.631713,-0.631717 h -0.631715 v -2.526854 -2.526848 h 0.631715 c 0.505375,0 0.631713,0.126341 0.631713,0.631716 0,0.505361 0.126343,0.631704 0.631717,0.631704 0.505374,0 0.631717,-0.126343 0.631717,-0.631704 0,-0.505375 0.126338,-0.631716 0.631713,-0.631716 0.505364,0 0.631707,-0.126343 0.631707,-0.631717 0,-0.505375 0.126351,-0.631713 0.631717,-0.631713 0.505374,0 0.631713,-0.126342 0.631713,-0.631717 0,-0.505365 -0.126339,-0.631717 -0.631713,-0.631717 -0.505366,0 -0.631717,-0.126337 -0.631717,-0.631703 0,-0.505374 -0.126343,-0.631717 -0.631707,-0.631717 -0.589598,0 -0.631713,-0.08423 -0.631713,-1.263428 0,-1.179198 -0.04211,-1.26343 -0.631717,-1.26343 -0.505374,0 -0.631717,-0.126342 -0.631717,-0.631707 0,-0.505375 -0.126338,-0.631717 -0.631713,-0.631717 -0.505364,0 -0.631715,-0.126338 -0.631715,-0.631713 0,-0.505372 0.126351,-0.631715 0.631715,-0.631715 0.505375,0 0.631713,-0.126343 0.631713,-0.631717 0,-0.50536 -0.126338,-0.631712 -0.631713,-0.631712 -0.505364,0 -0.631715,-0.126342 -0.631715,-0.631708 0,-0.505374 0.126351,-0.631712 0.631715,-0.631712 0.505375,0 0.631713,-0.126342 0.631713,-0.631716 0,-0.505375 -0.126338,-0.631717 -0.631713,-0.631717 -0.5896,0 -0.631715,-0.08423 -0.631715,-1.26343 0,-1.179197 -0.04211,-1.26342 -0.631704,-1.26342 -0.589601,0 -0.631716,-0.08423 -0.631716,-1.263429 0,-1.179198 0.0421,-1.263433 0.631716,-1.263433 0.505361,0 0.631704,-0.126339 0.631704,-0.631703 0,-0.505375 -0.126343,-0.631713 -0.631704,-0.631713 -0.505375,0 -0.631716,0.126338 -0.631716,0.631713 0,0.505364 -0.126343,0.631703 -0.631717,0.631703 -0.505375,0 -0.631713,-0.126339 -0.631713,-0.631703 0,-0.505375 -0.126343,-0.631713 -0.631717,-0.631713 -0.505365,0 -0.631717,0.126338 -0.631717,0.631713 0,0.589596 -0.08423,0.631703 -1.26342,0.631703 h -1.263428 v -1.895133 c 0,-1.8530298 0.01405,-1.8951462 0.631715,-1.8951462 0.505375,0 0.631713,-0.1263419 0.631713,-0.6317074 0,-0.5053739 0.126343,-0.6317127 0.631717,-0.6317127 0.589596,0 0.631703,0.084233 0.631703,1.2634201 0,1.1792072 0.04211,1.2634292 0.631717,1.2634292 0.617675,0 0.631717,-0.04211 0.631717,-1.8951366 0,-1.8530258 0.01405,-1.8951464 0.631713,-1.8951464 0.5896,0 0.631717,0.084233 0.631717,1.2634337 0,1.1791936 0.0421,1.2634201 0.631716,1.2634201 0.505361,0 0.631704,0.1263524 0.631704,0.6317169 0,0.5053753 0.126351,0.6317123 0.631715,0.6317123 0.505375,0 0.631713,-0.126337 0.631713,-0.6317123 0,-0.5053645 -0.126338,-0.6317169 -0.631713,-0.6317169 -0.5896,0 -0.631715,-0.084233 -0.631715,-1.2634201 0,-1.1791977 -0.04211,-1.2634337 -0.631704,-1.2634337 -0.505375,0 -0.631716,-0.1263377 -0.631716,-0.6317127 0,-0.5895984 -0.08423,-0.6317158 -1.26343,-0.6317158 -1.179198,0 -1.263434,-0.042111 -1.263434,-0.6317054 0,-0.5896078 0.08423,-0.6317147 1.263434,-0.6317147 h 1.26343 V 2.8347948 c 0,-1.1791968 -0.04211,-1.2634307 -0.631717,-1.2634307 -0.505375,0 -0.631713,0.1263504 -0.631713,0.6317148 0,0.6176763 -0.04211,0.6317159 -1.895137,0.6317159 -1.85303,0 -1.895145,0.014041 -1.895145,0.6317147 0,0.505374 -0.126343,0.6317159 -0.631717,0.6317159 -0.617676,0 -0.631713,0.042111 -0.631713,1.8951359 0,1.8530268 -0.01405,1.8951464 -0.631707,1.8951464 -0.505375,0 -0.631717,0.1263388 -0.631717,0.6317127 0,0.5053655 -0.126339,0.6317074 -0.631713,0.6317074 -0.505374,0 -0.631717,0.1263524 -0.631717,0.6317169 0,0.5053753 -0.126342,0.6317123 -0.631709,0.6317123 -0.589602,0 -0.631717,0.08423 -0.631717,1.263434 0,1.179194 0.0421,1.263416 0.631717,1.263416 0.505367,0 0.631709,0.126351 0.631709,0.631717 0,0.505374 0.126343,0.631716 0.631717,0.631716 0.505374,0 0.631713,-0.126342 0.631713,-0.631716 0,-0.505366 0.126342,-0.631717 0.631717,-0.631717 0.589596,0 0.631707,0.08423 0.631707,1.263433 v 1.263429 h -1.263424 -1.26343 v 1.26342 c 0,1.179208 0.04211,1.26343 0.631717,1.26343 0.505374,0 0.631713,-0.126339 0.631713,-0.631713 0,-0.505365 0.126342,-0.631717 0.631717,-0.631717 0.589596,0 0.631707,0.08423 0.631707,1.26343 v 1.263433 h -1.895137 -1.895143 v -1.263433 -1.26343 h -1.26342 -1.263434 v -1.26342 c 0,-1.179197 -0.04211,-1.263429 -0.631713,-1.263429 -0.505365,0 -0.631717,0.126338 -0.631717,0.631712 0,0.505374 -0.126342,0.631717 -0.631703,0.631717 -0.505376,0 -0.631718,-0.126343 -0.631718,-0.631717 0,-0.589596 -0.08423,-0.631712 -1.263429,-0.631712 h -1.263434 v 1.263429 1.26342 h 1.263434 c 1.179193,0 1.263429,0.04211 1.263429,0.631717 0,0.505374 -0.126343,0.631713 -0.631717,0.631713 -0.505375,0 -0.631712,0.126342 -0.631712,0.631717 0,0.505374 0.126337,0.631716 0.631712,0.631716 0.505374,0 0.631717,-0.126342 0.631717,-0.631716 0,-0.589597 0.08423,-0.631717 1.263421,-0.631717 1.179208,0 1.26343,0.0421 1.26343,0.631717 0,0.505374 0.126342,0.631716 0.631717,0.631716 0.505374,0 0.631717,0.126338 0.631717,0.631712 0,0.505366 0.126337,0.631708 0.631711,0.631708 0.505366,0 0.631709,0.126352 0.631709,0.631712 0,0.505374 0.126351,0.631717 0.631717,0.631717 0.505367,0 0.631709,-0.126343 0.631709,-0.631717 0,-0.50536 0.126343,-0.631712 0.631717,-0.631712 0.589596,0 0.631713,0.08423 0.631713,1.263429 v 1.263428 h -1.895139 c -1.853022,0 -1.895137,0.01405 -1.895137,0.631717 0,0.505365 -0.126343,0.631707 -0.631717,0.631707 -0.505375,0 -0.631717,-0.126342 -0.631717,-0.631707 0,-0.505375 -0.126338,-0.631717 -0.631713,-0.631717 -0.5896,0 -0.631717,0.08423 -0.631717,1.263424 0,1.179202 -0.0421,1.26343 -0.631703,1.26343 -0.505376,0 -0.631718,0.126342 -0.631718,0.631716 0,0.50537 -0.126343,0.631712 -0.631717,0.631712 -0.617675,0 -0.631712,-0.0421 -0.631712,-1.895145 0,-1.853026 0.01405,-1.895137 0.631712,-1.895137 0.589601,0 0.631717,-0.08423 0.631717,-1.263428 0,-1.179197 -0.04211,-1.263429 -0.631717,-1.263429 -0.505375,0 -0.631712,0.126352 -0.631712,0.631712 0,0.61768 -0.04211,0.631717 -1.895147,0.631717 -1.85303,0 -1.895136,-0.01405 -1.895136,-0.631717 0,-0.50536 -0.126343,-0.631712 -0.631717,-0.631712 -0.505375,0 -0.631712,-0.126342 -0.631712,-0.631708 0,-0.505374 0.126337,-0.631712 0.631712,-0.631712 0.589601,0 0.631717,-0.08423 0.631717,-1.263433 0,-1.179194 0.04211,-1.26343 0.631716,-1.26343 0.505361,0 0.631704,-0.126343 0.631704,-0.631703 0,-0.505374 -0.126343,-0.631717 -0.631704,-0.631717 -0.505374,0 -0.631716,-0.126343 -0.631716,-0.631717 0,-0.505374 0.126342,-0.631712 0.631716,-0.631712 0.505361,0 0.631704,-0.126342 0.631704,-0.631716 0,-0.505366 0.126352,-0.631717 0.631716,-0.631717 0.505375,0 0.631713,-0.126339 0.631713,-0.631703 0,-0.589606 -0.08423,-0.631713 -1.263429,-0.631713 h -1.26342 v 1.263416 c 0,1.179206 -0.04211,1.263433 -0.631717,1.263433 -0.505375,0 -0.631712,-0.126342 -0.631712,-0.631716 0,-0.505366 -0.126343,-0.631717 -0.631717,-0.631717 -0.505366,0 -0.631717,-0.126339 -0.631717,-0.631703 0,-0.505375 0.126351,-0.631713 0.631717,-0.631713 0.505374,0 0.631717,-0.126343 0.631717,-0.631717 0,-0.589601 -0.08423,-0.631717 -1.263434,-0.631717 h -1.26342 V 9.1519278 c 0,-1.1791977 -0.04211,-1.2634201 -0.631713,-1.2634201 -0.589599,0 -0.631717,0.084233 -0.631717,1.2634201 0,1.1792072 0.04211,1.2634292 0.631717,1.2634292 0.505375,0 0.631713,0.126343 0.631713,0.631717 0,0.589597 -0.08423,0.631717 -1.26343,0.631717 -1.1792,0 -1.263427,0.04211 -1.263427,0.631713 0,0.589596 0.08422,0.631703 1.263427,0.631703 1.179199,0 1.26343,0.0421 1.26343,0.631717 0,0.617674 -0.04211,0.631716 -1.895143,0.631716 -1.853028,0 -1.895142,-0.01405 -1.895142,-0.631716 0,-0.589597 -0.08422,-0.631717 -1.263427,-0.631717 -1.179199,0 -1.263426,-0.04211 -1.263426,-0.631703 0,-0.589606 0.08422,-0.631713 1.263426,-0.631713 1.179199,0 1.263427,-0.04211 1.263427,-0.631717 0,-0.505374 0.126343,-0.631717 0.631714,-0.631717 0.5896,0 0.631714,-0.08423 0.631714,-1.2634292 0,-1.1791977 -0.04211,-1.2634201 -0.631714,-1.2634201 -0.505371,0 -0.631714,0.1263388 -0.631714,0.6317127 0,0.5053655 -0.126341,0.6317074 -0.631713,0.6317074 -0.505371,0 -0.631714,-0.1263419 -0.631714,-0.6317074 0,-0.5053739 -0.126342,-0.6317127 -0.631714,-0.6317127 -0.505369,0 -0.631712,-0.1263419 -0.631712,-0.6317158 0,-0.505375 -0.126344,-0.6317179 -0.631714,-0.6317179 -0.505372,0 -0.631715,-0.1263377 -0.631715,-0.6317127 0,-0.5895984 -0.08422,-0.6317158 -1.263426,-0.6317158 H 17.920728 V 6.625074 c 0,1.1791988 -0.04211,1.2634337 -0.631712,1.2634337 -0.505372,0 -0.631715,0.1263388 -0.631715,0.6317127 0,0.5053655 0.126343,0.6317074 0.631715,0.6317074 0.505369,0 0.631712,-0.1263419 0.631712,-0.6317074 0,-0.5053739 0.126343,-0.6317127 0.631714,-0.6317127 0.589599,0 0.631714,0.084233 0.631714,1.2634201 0,1.1792072 -0.04211,1.2634292 -0.631714,1.2634292 -0.589599,0 -0.631714,0.08423 -0.631714,1.263434 0,1.179194 0.04211,1.263416 0.631714,1.263416 0.589599,0 0.631714,-0.08423 0.631714,-1.263416 v -1.263434 h 1.263426 c 1.179199,0 1.263429,0.04211 1.263429,0.631717 0,0.505374 -0.126344,0.631717 -0.631714,0.631717 -0.589601,0 -0.631715,0.08423 -0.631715,1.263416 0,1.179206 -0.04211,1.263433 -0.631713,1.263433 -0.505371,0 -0.631713,0.126338 -0.631713,0.631712 0,0.505374 0.126342,0.631717 0.631713,0.631717 0.505371,0 0.631713,-0.126343 0.631713,-0.631717 0,-0.505374 0.126343,-0.631712 0.631715,-0.631712 0.50537,0 0.631714,0.126338 0.631714,0.631712 0,0.505374 0.126343,0.631717 0.631712,0.631717 0.505372,0 0.631714,0.126343 0.631714,0.631717 0,0.50536 0.126343,0.631703 0.631714,0.631703 0.505372,0 0.631713,-0.126343 0.631713,-0.631703 0,-0.505374 0.126343,-0.631717 0.631714,-0.631717 0.505371,0 0.631714,0.126343 0.631714,0.631717 0,0.50536 0.126343,0.631703 0.631714,0.631703 0.50537,0 0.631713,-0.126343 0.631713,-0.631703 0,-0.505374 0.126343,-0.631717 0.631717,-0.631717 0.589598,0 0.631713,0.08423 0.631713,1.26342 0,1.179208 -0.04211,1.26343 -0.631713,1.26343 -0.505374,0 -0.631717,0.126342 -0.631717,0.631717 0,0.505374 -0.126343,0.631716 -0.631713,0.631716 -0.505371,0 -0.631714,0.126338 -0.631714,0.631712 0,0.589602 -0.08422,0.631708 -1.263428,0.631708 -1.179198,0 -1.263427,0.04211 -1.263427,0.631712 0,0.505374 -0.126342,0.631717 -0.631714,0.631717 -0.589599,0 -0.631712,-0.08423 -0.631712,-1.263429 v -1.26342 h -1.263429 c -1.179199,0 -1.263426,0.04211 -1.263426,0.631712 0,0.505366 -0.126343,0.631708 -0.631714,0.631708 -0.589599,0 -0.631714,-0.08423 -0.631714,-1.26342 v -1.263433 h 1.895141 c 1.853027,0 1.895142,-0.01405 1.895142,-0.631713 0,-0.617679 -0.04211,-0.631717 -1.895142,-0.631717 -1.853026,0 -1.895141,0.01405 -1.895141,0.631717 0,0.505374 -0.126343,0.631713 -0.631712,0.631713 -0.505372,0 -0.631715,-0.126339 -0.631715,-0.631713 0,-0.505365 -0.126342,-0.631717 -0.631714,-0.631717 -0.505371,0 -0.631713,-0.126343 -0.631713,-0.631703 0,-0.505374 -0.126343,-0.631717 -0.631714,-0.631717 -0.50537,0 -0.631714,-0.126343 -0.631714,-0.631717 0,-0.505374 -0.126342,-0.631712 -0.631713,-0.631712 -0.5896,0 -0.631714,-0.08423 -0.631714,-1.263433 0,-1.179194 -0.04211,-1.263416 -0.631713,-1.263416 -0.5896,0 -0.631714,0.08423 -0.631714,1.263416 V 14.20564 H 9.0767366 6.5498827 v -0.631716 c 0,-0.505366 -0.1263429,-0.631717 -0.6317137,-0.631717 -0.5053718,0 -0.6317148,-0.126339 -0.6317148,-0.631703 0,-0.589606 -0.084222,-0.631713 -1.2634259,-0.631713 -1.1791996,0 -1.2634277,0.04211 -1.2634277,0.631713 0,0.589596 0.084224,0.631703 1.2634277,0.631703 1.1791983,0 1.2634259,0.0421 1.2634259,0.631717 0,0.505374 -0.1263419,0.631716 -0.6317127,0.631716 -0.5053711,0 -0.6317132,0.126338 -0.6317132,0.631712 0,0.505374 -0.1263433,0.631717 -0.6317145,0.631717 -0.5053704,0 -0.6317132,-0.126343 -0.6317132,-0.631717 0,-0.505374 -0.126343,-0.631712 -0.6317133,-0.631712 -0.5053712,0 -0.6317146,0.126338 -0.6317146,0.631712 0,0.505374 0.1263434,0.631717 0.6317146,0.631717 0.5053703,0 0.6317133,0.126343 0.6317133,0.631717 0,0.50536 0.1263428,0.631703 0.6317132,0.631703 0.5053712,0 0.6317145,-0.126343 0.6317145,-0.631703 0,-0.505374 0.1263421,-0.631717 0.6317132,-0.631717 0.5895995,0 0.6317127,0.08423 0.6317127,1.26342 0,1.179208 -0.042111,1.26343 -0.6317127,1.26343 -0.5895994,0 -0.6317132,0.08423 -0.6317132,1.263433 0,1.179193 0.042115,1.26342 0.6317132,1.26342 0.5895995,0 0.6317127,0.08423 0.6317127,1.263429 v 1.263428 H 4.0230283 c -1.1791996,0 -1.2634277,0.04211 -1.2634277,0.631717 0,0.589596 0.084224,0.631707 1.2634277,0.631707 1.1791983,0 1.2634259,0.04211 1.2634259,0.631713 0,0.505374 -0.1263419,0.631717 -0.6317127,0.631717 -0.6176752,0 -0.6317132,0.0421 -0.6317132,1.895145 v 1.895137 h 1.2634259 c 1.1791988,0 1.2634285,0.04211 1.2634285,0.631713 0,0.5896 0.084222,0.631717 1.2634275,0.631717 1.1791988,0 1.2634264,-0.04211 1.2634264,-0.631717 0,-0.589598 -0.084222,-0.631713 -1.2634264,-0.631713 H 6.5498827 v -1.263434 c 0,-1.179192 -0.042111,-1.26342 -0.6317137,-1.26342 -0.5053718,0 -0.6317148,-0.126342 -0.6317148,-0.631712 0,-0.505374 0.126343,-0.631716 0.6317148,-0.631716 0.5053708,0 0.6317137,-0.126343 0.6317137,-0.631717 0,-0.505366 0.126343,-0.631713 0.6317127,-0.631713 0.5053718,0 0.6317148,0.126347 0.6317148,0.631713 0,0.505374 0.1263419,0.631717 0.6317137,0.631717 0.5053708,0 0.6317127,0.126342 0.6317127,0.631716 0,0.50537 -0.1263419,0.631712 -0.6317127,0.631712 -0.5053718,0 -0.6317137,0.126343 -0.6317137,0.631717 0,0.617667 0.042111,0.631703 1.8951401,0.631703 1.8530277,0 1.8951417,0.01405 1.8951417,0.631717 0,0.505375 -0.126343,0.631717 -0.631714,0.631717 -0.505371,0 -0.631714,0.126338 -0.631714,0.631713 0,0.505374 0.126343,0.631717 0.631714,0.631717 0.505371,0 0.631714,-0.126343 0.631714,-0.631717 0,-0.589598 0.08422,-0.631713 1.263427,-0.631713 h 1.263427 v 1.895146 1.895132 h -1.263427 -1.263427 v 1.895147 c 0,1.85302 -0.01404,1.895137 -0.631714,1.895137 -0.505371,0 -0.631714,0.126341 -0.631714,0.631717 0,0.505374 -0.126343,0.631713 -0.6317137,0.631713 -0.5053708,0 -0.6317137,-0.126339 -0.6317137,-0.631713 0,-0.589602 -0.084222,-0.631717 -1.2634264,-0.631717 -1.1791999,0 -1.2634275,0.0421 -1.2634275,0.631717 0,0.589597 -0.084222,0.631713 -1.2634285,0.631713 -1.1791982,0 -1.2634259,0.04211 -1.2634259,0.631717 0,0.505365 0.1263421,0.631707 0.6317132,0.631707 0.5053708,0 0.6317127,0.126348 0.6317127,0.631713 0,0.505374 0.126343,0.631716 0.6317148,0.631716 0.5053708,0 0.6317137,0.126343 0.6317137,0.631717 0,0.505375 -0.1263429,0.631713 -0.6317137,0.631713 -0.5053718,0 -0.6317148,0.126342 -0.6317148,0.631716 0,0.589597 -0.084222,0.631704 -1.2634259,0.631704 H 2.7596006 v 2.526863 2.526849 h 0.6317132 c 0.5053712,0 0.6317145,0.126342 0.6317145,0.631716 0,0.505374 0.1263421,0.631717 0.6317132,0.631717 0.5053708,0 0.6317127,0.126342 0.6317127,0.631713 0,0.5896 -0.084222,0.631707 -1.2634259,0.631707 -1.1791996,0 -1.2634277,0.04211 -1.2634277,0.631717 0,0.589597 0.084224,0.631713 1.2634277,0.631713 1.1791983,0 1.2634259,-0.04211 1.2634259,-0.631713 0,-0.617679 0.042111,-0.631717 1.8951412,-0.631717 1.8530269,0 1.8951412,0.01405 1.8951412,0.631717 0,0.589597 -0.084222,0.631713 -1.2634264,0.631713 -1.1791999,0 -1.2634275,0.0421 -1.2634275,0.631716 0,0.617675 0.042111,0.631717 1.8951412,0.631717 1.8530261,0 1.8951401,0.01405 1.8951401,0.631712 0,0.589602 0.08422,0.631708 1.263428,0.631708 h 1.263427 v -1.26342 c 0,-1.179207 0.04211,-1.263433 0.631714,-1.263433 0.505371,0 0.631713,-0.126339 0.631713,-0.631713 0,-0.505365 -0.126342,-0.631717 -0.631713,-0.631717 -0.505371,0 -0.631714,0.126352 -0.631714,0.631717 0,0.589597 -0.08422,0.631713 -1.263427,0.631713 h -1.263428 v -1.26343 -1.26342 h 1.263428 c 1.179199,0 1.263427,-0.04211 1.263427,-0.631717 0,-0.505374 -0.126342,-0.631716 -0.631713,-0.631716 -0.505372,0 -0.631714,-0.126338 -0.631714,-0.631713 0,-0.617675 -0.04211,-0.631717 -1.8951417,-0.631717 -1.8530258,0 -1.8951401,0.01405 -1.8951401,0.631717 0,0.505375 0.1263419,0.631713 0.6317137,0.631713 0.5053708,0 0.6317127,0.126342 0.6317127,0.631716 0,0.617676 -0.042111,0.631717 -1.8951412,0.631717 -1.8530269,0 -1.8951412,-0.01405 -1.8951412,-0.631717 0,-0.505374 -0.1263419,-0.631716 -0.6317127,-0.631716 -0.5053711,0 -0.6317132,-0.126338 -0.6317132,-0.631713 0,-0.505365 0.1263421,-0.631717 0.6317132,-0.631717 0.5053708,0 0.6317127,-0.126342 0.6317127,-0.631703 0,-0.505374 -0.1263419,-0.631716 -0.6317127,-0.631716 -0.5053711,0 -0.6317132,-0.126343 -0.6317132,-0.631717 0,-0.617675 0.042115,-0.631713 1.8951407,-0.631713 1.8530258,0 1.8951412,0.01405 1.8951412,0.631713 0,0.589601 0.084222,0.631717 1.2634264,0.631717 1.1791984,0 1.2634274,-0.04211 1.2634274,-0.631717 0,-0.505375 0.126343,-0.631713 0.631714,-0.631713 0.505371,0 0.631714,0.126338 0.631714,0.631713 0,0.505374 0.126342,0.631717 0.631714,0.631717 0.505371,0 0.631713,0.126342 0.631713,0.631716 v 0.631703 h 2.526855 2.526854 v 1.895146 c 0,1.85303 0.01404,1.895137 0.631714,1.895137 0.505371,0 0.631714,-0.126343 0.631714,-0.631707 0,-0.505371 0.126342,-0.631713 0.631713,-0.631713 0.5896,0 0.631713,0.08423 0.631713,1.26342 0,1.179208 0.04211,1.26343 0.631715,1.26343 0.50537,0 0.631714,0.126342 0.631714,0.631716 0,0.589597 0.08422,0.631717 1.263426,0.631717 1.179199,0 1.263427,0.04211 1.263427,0.631712 0,0.589602 0.08422,0.631708 1.263428,0.631708 1.179199,0 1.263427,0.04211 1.263427,0.631712 0,0.505374 0.126343,0.631717 0.631717,0.631717 0.505375,0 0.631713,0.126342 0.631713,0.631717 0,0.505374 0.126343,0.631713 0.631717,0.631713 0.505365,0 0.631703,0.126342 0.631703,0.631716 0,0.505365 0.126351,0.631708 0.631717,0.631708 0.589596,0 0.631717,-0.08423 0.631717,-1.263424 z M 14.130446,45.159606 c 0,-0.589597 -0.08422,-0.631713 -1.263427,-0.631713 -1.179198,0 -1.263427,-0.04211 -1.263427,-0.631717 0,-0.505365 -0.126343,-0.631716 -0.631714,-0.631716 -0.505371,0 -0.631714,0.126351 -0.631714,0.631716 0,0.589597 -0.08422,0.631717 -1.2634274,0.631717 -1.1791988,0 -1.2634264,-0.04211 -1.2634264,-0.631717 0,-0.505365 0.1263419,-0.631716 0.6317137,-0.631716 0.5053708,0 0.6317127,-0.126338 0.6317127,-0.631704 0,-0.505374 -0.1263419,-0.631716 -0.6317127,-0.631716 -0.5053718,0 -0.6317137,-0.126338 -0.6317137,-0.631713 0,-0.505374 0.1263419,-0.631717 0.6317137,-0.631717 0.5053708,0 0.6317127,-0.126342 0.6317127,-0.631716 0,-0.505365 -0.1263419,-0.631713 -0.6317127,-0.631713 -0.5053718,0 -0.6317137,-0.126342 -0.6317137,-0.631707 0,-0.505375 0.1263419,-0.631717 0.6317137,-0.631717 0.5053708,0 0.6317127,0.126342 0.6317127,0.631717 0,0.617666 0.042111,0.631707 1.8951414,0.631707 1.853027,0 1.895141,0.01405 1.895141,0.631713 0,0.505374 -0.126342,0.631716 -0.631713,0.631716 -0.505372,0 -0.631714,0.126343 -0.631714,0.631717 0,0.589597 0.08422,0.631713 1.263427,0.631713 h 1.263427 v -1.26343 c 0,-1.179198 0.04211,-1.263429 0.631714,-1.263429 0.505371,0 0.631714,-0.126342 0.631714,-0.631707 0,-0.505375 -0.126343,-0.631717 -0.631714,-0.631717 -0.50537,0 -0.631714,-0.126339 -0.631714,-0.631713 0,-0.505376 -0.126342,-0.631717 -0.631713,-0.631717 -0.505371,0 -0.631714,-0.126343 -0.631714,-0.631713 0,-0.505366 0.126343,-0.631717 0.631714,-0.631717 0.5896,0 0.631713,-0.08423 0.631713,-1.26342 0,-1.179206 0.04211,-1.263434 0.631714,-1.263434 0.589599,0 0.631714,0.08423 0.631714,1.263434 0,1.179193 0.04211,1.26342 0.631713,1.26342 0.617675,0 0.631714,-0.0421 0.631714,-1.895137 v -1.895145 h 1.263427 c 1.179199,0 1.263428,0.0421 1.263428,0.631717 0,0.589596 0.08422,0.631711 1.263426,0.631711 h 1.263429 v -1.263428 -1.26342 h -1.263429 c -1.179199,0 -1.263426,-0.04211 -1.263426,-0.631717 0,-0.505375 -0.126343,-0.631713 -0.631714,-0.631713 -0.505371,0 -0.631714,-0.126342 -0.631714,-0.631717 0,-0.505365 -0.126343,-0.631717 -0.631712,-0.631717 -0.589601,0 -0.631715,0.08423 -0.631715,1.263434 0,1.179194 -0.04212,1.26343 -0.631714,1.26343 -0.505371,0 -0.631713,-0.126343 -0.631713,-0.631717 0,-0.505375 -0.126343,-0.631713 -0.631714,-0.631713 -0.50537,0 -0.631714,-0.126342 -0.631714,-0.631717 0,-0.589596 -0.08422,-0.631717 -1.263427,-0.631717 -1.179198,0 -1.263427,-0.0421 -1.263427,-0.631703 0,-0.505374 -0.126343,-0.631717 -0.631714,-0.631717 -0.505371,0 -0.631714,-0.126342 -0.631714,-0.631712 0,-0.505374 -0.126343,-0.631716 -0.6317137,-0.631716 -0.5053708,0 -0.6317137,-0.126343 -0.6317137,-0.631717 0,-0.505366 -0.1263419,-0.631713 -0.6317127,-0.631713 -0.5053718,0 -0.6317137,-0.126342 -0.6317137,-0.631707 0,-0.505375 -0.126343,-0.631717 -0.6317148,-0.631717 -0.5895994,0 -0.6317127,-0.08423 -0.6317127,-1.263428 0,-1.179197 -0.042111,-1.263429 -0.6317137,-1.263429 -0.5896005,0 -0.6317148,-0.08423 -0.6317148,-1.26342 0,-1.179198 0.042111,-1.263433 0.6317148,-1.263433 0.5053708,0 0.6317137,0.126342 0.6317137,0.631717 0,0.505374 0.126343,0.631716 0.6317127,0.631716 0.5053718,0 0.6317148,-0.126342 0.6317148,-0.631716 0,-0.505375 0.1263419,-0.631717 0.6317137,-0.631717 0.5053708,0 0.6317127,-0.126339 0.6317127,-0.631713 0,-0.589601 -0.084222,-0.631717 -1.2634264,-0.631717 -1.1791999,0 -1.2634275,-0.04211 -1.2634275,-0.631703 0,-0.505374 -0.1263429,-0.631717 -0.6317137,-0.631717 -0.5053718,0 -0.6317148,-0.126343 -0.6317148,-0.631717 0,-0.505374 0.126343,-0.631712 0.6317148,-0.631712 0.5053708,0 0.6317137,0.126338 0.6317137,0.631712 v 0.631717 h 2.5268539 2.5268554 v -0.631717 c 0,-0.505374 0.126342,-0.631712 0.631714,-0.631712 0.589599,0 0.631713,0.08423 0.631713,1.263429 v 1.26342 h -1.263427 c -1.1792,0 -1.263428,0.04211 -1.263428,0.631717 0,0.505374 -0.126343,0.631713 -0.6317137,0.631713 -0.5053708,0 -0.6317137,0.126342 -0.6317137,0.631717 0,0.505374 0.1263429,0.631716 0.6317137,0.631716 0.5053707,0 0.6317137,0.126338 0.6317137,0.631712 0,0.505366 0.126343,0.631708 0.631714,0.631708 0.5896,0 0.631714,-0.08423 0.631714,-1.26342 v -1.263433 h 1.263427 c 1.179198,0 1.263427,-0.04211 1.263427,-0.631713 0,-0.505365 0.126344,-0.631717 0.631714,-0.631717 0.505371,0 0.631714,0.126352 0.631714,0.631717 0,0.505374 -0.126343,0.631713 -0.631714,0.631713 -0.50537,0 -0.631714,0.126342 -0.631714,0.631717 0,0.589596 0.08422,0.631716 1.263428,0.631716 1.179199,0 1.263427,0.04211 1.263427,0.631712 0,0.505366 0.126343,0.631708 0.631715,0.631708 0.589599,0 0.631712,0.08423 0.631712,1.263429 0,1.179196 -0.04211,1.263428 -0.631712,1.263428 -0.589601,0 -0.631715,-0.08423 -0.631715,-1.263428 V 20.522772 H 14.76216 c -1.853027,0 -1.895141,0.01405 -1.895141,0.631712 0,0.505374 -0.126342,0.631717 -0.631713,0.631717 -0.505372,0 -0.631714,0.126343 -0.631714,0.631715 0,0.505375 0.126342,0.631713 0.631714,0.631713 0.505371,0 0.631713,0.126342 0.631713,0.631717 0,0.505365 0.126343,0.631707 0.631714,0.631707 0.505371,0 0.631713,-0.126342 0.631713,-0.631707 0,-0.505375 0.126344,-0.631717 0.631714,-0.631717 0.505371,0 0.631714,0.126342 0.631714,0.631717 0,0.505365 -0.126343,0.631707 -0.631714,0.631707 -0.50537,0 -0.631714,0.126347 -0.631714,0.631713 0,0.5896 -0.08422,0.631717 -1.263427,0.631717 -1.179198,0 -1.263427,0.0421 -1.263427,0.631716 0,0.589597 0.08422,0.631712 1.263427,0.631712 1.179198,0 1.263427,0.04211 1.263427,0.631717 0,0.505366 0.126344,0.631703 0.631714,0.631703 0.505371,0 0.631714,-0.126337 0.631714,-0.631703 0,-0.505374 0.126342,-0.631717 0.631713,-0.631717 0.589599,0 0.631714,-0.08423 0.631714,-1.263428 0,-1.179198 0.04211,-1.26343 0.631715,-1.26343 0.505369,0 0.631712,0.126347 0.631712,0.631713 0,0.505374 0.126343,0.631717 0.631714,0.631717 0.617675,0 0.631714,-0.04211 0.631714,-1.895137 0,-1.853029 0.01404,-1.895145 0.631713,-1.895145 0.505371,0 0.631713,0.126343 0.631713,0.631715 0,0.589597 0.08422,0.631713 1.263429,0.631713 1.179197,0 1.263426,-0.04211 1.263426,-0.631713 0,-0.617673 0.04211,-0.631715 1.895141,-0.631715 h 1.895141 v 2.526852 2.526858 h -1.263427 c -1.179199,0 -1.263428,-0.0421 -1.263428,-0.631712 0,-0.505374 -0.126341,-0.631716 -0.631713,-0.631716 -0.5896,0 -0.631714,0.08423 -0.631714,1.263428 0,1.179198 -0.04211,1.26342 -0.631714,1.26342 -0.505369,0 -0.631712,-0.126337 -0.631712,-0.631703 0,-0.505374 -0.126344,-0.631717 -0.631714,-0.631717 -0.505372,0 -0.631715,-0.126342 -0.631715,-0.631712 0,-0.505374 -0.126342,-0.631716 -0.631713,-0.631716 -0.617675,0 -0.631713,0.0421 -0.631713,1.895145 v 1.895137 h 1.263426 c 1.179199,0 1.263429,0.04211 1.263429,0.631713 0,0.5896 0.08422,0.631717 1.263426,0.631717 1.179199,0 1.263427,0.0421 1.263427,0.631716 0,0.617666 0.04211,0.631704 1.895142,0.631704 1.853028,0 1.895143,0.01405 1.895143,0.631717 0,0.589596 -0.08423,0.631711 -1.26343,0.631711 h -1.263427 v 1.263434 c 0,1.179193 0.04211,1.26342 0.631714,1.26342 0.50537,0 0.631713,0.126351 0.631713,0.631717 0,0.50537 -0.126343,0.631713 -0.631713,0.631713 -0.505371,0 -0.631714,0.126341 -0.631714,0.631717 0,0.505374 -0.126343,0.631713 -0.631714,0.631713 -0.505371,0 -0.631714,0.126342 -0.631714,0.631717 0,0.505365 -0.126341,0.631707 -0.631713,0.631707 -0.505371,0 -0.631714,0.126348 -0.631714,0.631713 0,0.505374 -0.126342,0.631716 -0.631714,0.631716 -0.617675,0 -0.631712,0.04211 -0.631712,1.895146 0,1.853017 -0.01404,1.895137 -0.631714,1.895137 -0.617676,0 -0.631715,-0.04211 -0.631715,-1.895137 0,-1.85303 -0.01404,-1.895146 -0.631713,-1.895146 -0.505371,0 -0.631713,0.126343 -0.631713,0.631717 0,0.505375 -0.126343,0.631713 -0.631714,0.631713 -0.505371,0 -0.631714,-0.126338 -0.631714,-0.631713 0,-0.505374 0.126343,-0.631717 0.631714,-0.631717 0.505371,0 0.631714,-0.126342 0.631714,-0.631716 0,-0.617675 -0.04211,-0.631713 -1.89514,-0.631713 h -1.895142 v 1.263429 c 0,1.179199 0.04211,1.26343 0.631713,1.26343 0.505372,0 0.631714,0.126342 0.631714,0.631716 0,0.505366 -0.126342,0.631704 -0.631714,0.631704 -0.589599,0 -0.631713,0.08423 -0.631713,1.263433 0,1.179194 -0.04211,1.26343 -0.631714,1.26343 -0.50537,0 -0.631714,-0.126343 -0.631714,-0.631717 z m -3.790282,-3.790279 c 0,-0.505374 -0.126343,-0.631717 -0.6317137,-0.631717 -0.5053708,0 -0.6317137,0.126343 -0.6317137,0.631717 0,0.505375 0.1263429,0.631713 0.6317137,0.631713 0.5053707,0 0.6317137,-0.126338 0.6317137,-0.631713 z m 11.370847,-1.263433 c 0,-0.505365 0.126343,-0.631713 0.631712,-0.631713 0.505372,0 0.631714,-0.126342 0.631714,-0.631707 0,-0.505375 0.126343,-0.631717 0.631714,-0.631717 0.505372,0 0.631713,-0.126339 0.631713,-0.631713 0,-0.505376 -0.126341,-0.631717 -0.631713,-0.631717 -0.505371,0 -0.631714,0.126341 -0.631714,0.631717 0,0.589597 -0.08423,0.631713 -1.263426,0.631713 -1.179199,0 -1.263429,-0.04211 -1.263429,-0.631713 0,-0.505376 0.126343,-0.631717 0.631715,-0.631717 0.50537,0 0.631714,-0.126343 0.631714,-0.631713 0,-0.589602 0.08422,-0.631717 1.263426,-0.631717 h 1.263427 V 33.78876 c 0,-1.85303 -0.01404,-1.895145 -0.631713,-1.895145 -0.5896,0 -0.631714,0.08423 -0.631714,1.263428 v 1.263434 h -1.263426 -1.263429 v 1.26342 c 0,1.179207 -0.04211,1.26343 -0.631713,1.26343 -0.505371,0 -0.631713,-0.126343 -0.631713,-0.631713 0,-0.589602 -0.08423,-0.631717 -1.263428,-0.631717 -1.179199,0 -1.263427,0.04211 -1.263427,0.631717 0,0.50537 -0.126342,0.631713 -0.631714,0.631713 -0.505371,0 -0.631713,-0.126343 -0.631713,-0.631713 0,-0.505366 -0.126343,-0.631717 -0.631714,-0.631717 -0.50537,0 -0.631714,0.126351 -0.631714,0.631717 0,0.50537 0.126344,0.631713 0.631714,0.631713 0.505371,0 0.631714,0.126341 0.631714,0.631717 0,0.589597 0.08422,0.631713 1.263427,0.631713 1.179199,0 1.263427,-0.04211 1.263427,-0.631713 0,-0.505376 0.126343,-0.631717 0.631714,-0.631717 0.505371,0 0.631714,0.126341 0.631714,0.631717 0,0.505374 0.126342,0.631713 0.631713,0.631713 0.5896,0 0.631713,0.08423 0.631713,1.263424 0,1.179208 0.04211,1.263429 0.631715,1.263429 0.50537,0 0.631714,-0.126342 0.631714,-0.631716 z M 19.184156,33.78876 c 0,-0.505374 -0.126343,-0.631717 -0.631714,-0.631717 -0.505371,0 -0.631714,0.126343 -0.631714,0.631717 0,0.505375 0.126343,0.631717 0.631714,0.631717 0.505371,0 0.631714,-0.126342 0.631714,-0.631717 z m 6.317136,-8.843994 c 0,-0.505366 -0.126343,-0.631713 -0.631714,-0.631713 -0.505371,0 -0.631714,0.126347 -0.631714,0.631713 0,0.505374 0.126343,0.631717 0.631714,0.631717 0.505371,0 0.631714,-0.126343 0.631714,-0.631717 z m -15.161128,-2.52685 c 0,-0.589599 -0.08422,-0.631715 -1.2634274,-0.631715 -1.1791988,0 -1.2634264,0.04211 -1.2634264,0.631715 0,0.589597 0.084222,0.631713 1.2634264,0.631713 1.1791984,0 1.2634274,-0.04211 1.2634274,-0.631713 z M 9.0767366,19.891064 c 0,-0.505374 -0.1263419,-0.631712 -0.6317127,-0.631712 -0.5053718,0 -0.6317137,0.126338 -0.6317137,0.631712 0,0.505366 0.1263419,0.631708 0.6317137,0.631708 0.5053708,0 0.6317127,-0.126342 0.6317127,-0.631708 z M 22.974437,45.159606 c 0,-0.505375 0.126343,-0.631713 0.631714,-0.631713 0.505372,0 0.631713,0.126338 0.631713,0.631713 0,0.505374 -0.126341,0.631717 -0.631713,0.631717 -0.505371,0 -0.631714,-0.126343 -0.631714,-0.631717 z m 5.053712,-7.580562 c 0,-0.505376 0.126343,-0.631717 0.631717,-0.631717 0.505365,0 0.631703,0.126341 0.631703,0.631717 0,0.505374 -0.126338,0.631713 -0.631703,0.631713 -0.505374,0 -0.631717,-0.126339 -0.631717,-0.631713 z m 22.741692,0 c 0,-0.505376 0.126338,-0.631717 0.631713,-0.631717 0.505374,0 0.631717,-0.126343 0.631717,-0.631713 0,-0.505366 0.126341,-0.631717 0.631716,-0.631717 0.505361,0 0.631704,0.126351 0.631704,0.631717 0,0.50537 0.126351,0.631713 0.631715,0.631713 0.505375,0 0.631713,0.126341 0.631713,0.631717 0,0.505374 -0.126338,0.631713 -0.631713,0.631713 -0.505364,0 -0.631715,-0.126339 -0.631715,-0.631713 0,-0.505376 -0.126343,-0.631717 -0.631704,-0.631717 -0.505375,0 -0.631716,0.126341 -0.631716,0.631717 0,0.505374 -0.126343,0.631713 -0.631717,0.631713 -0.505375,0 -0.631713,-0.126339 -0.631713,-0.631713 z M 44.452705,35.05219 c 0,-1.853026 -0.01405,-1.895147 -0.631713,-1.895147 -0.505374,0 -0.631717,-0.126338 -0.631717,-0.631711 0,-0.505366 -0.126342,-0.631717 -0.631709,-0.631717 -0.505366,0 -0.631717,-0.126343 -0.631717,-0.631704 0,-0.505375 0.126351,-0.631716 0.631717,-0.631716 0.589594,0 0.631709,-0.08423 0.631709,-1.26343 0,-1.179198 -0.04211,-1.263434 -0.631709,-1.263434 -0.505366,0 -0.631717,0.126352 -0.631717,0.631717 0,0.505375 -0.126343,0.631717 -0.631709,0.631717 -0.617675,0 -0.631711,0.04211 -0.631711,1.895146 0,1.853017 -0.01405,1.895132 -0.631717,1.895132 -0.617675,0 -0.631717,-0.04211 -0.631717,-1.895132 0,-1.853031 0.01405,-1.895146 0.631717,-1.895146 0.617675,0 0.631717,-0.0421 0.631717,-1.895137 0,-1.85303 0.01405,-1.895145 0.631711,-1.895145 0.505366,0 0.631709,-0.126343 0.631709,-0.631717 0,-0.505366 0.126351,-0.631713 0.631717,-0.631713 0.505367,0 0.631709,0.126347 0.631709,0.631713 0,0.505374 0.126343,0.631717 0.631717,0.631717 0.505374,0 0.631713,0.126342 0.631713,0.631716 0,0.50537 0.126342,0.631712 0.631717,0.631712 0.589596,0 0.631707,-0.08423 0.631707,-1.263428 0,-1.179198 -0.04211,-1.26343 -0.631707,-1.26343 -0.505375,0 -0.631717,-0.126342 -0.631717,-0.631707 0,-0.505375 0.126342,-0.631717 0.631717,-0.631717 0.589596,0 0.631707,-0.08423 0.631707,-1.263428 0,-1.179197 0.04211,-1.263429 0.631713,-1.263429 0.505374,0 0.631717,0.126352 0.631717,0.631712 0,0.505374 0.126342,0.631717 0.631715,0.631717 0.505375,0 0.631713,-0.126343 0.631713,-0.631717 0,-0.50536 0.126343,-0.631712 0.631717,-0.631712 0.505366,0 0.631703,-0.126342 0.631703,-0.631708 0,-0.505374 0.126352,-0.631712 0.631717,-0.631712 0.505374,0 0.631717,-0.126342 0.631717,-0.631716 0,-0.505375 -0.126343,-0.631717 -0.631717,-0.631717 -0.589596,0 -0.631717,-0.08423 -0.631717,-1.26343 v -1.26342 h 1.263434 1.26343 v 1.895137 c 0,1.853026 -0.01405,1.895146 -0.631717,1.895146 -0.505375,0 -0.631713,0.126338 -0.631713,0.631712 0,0.589602 0.08423,0.631708 1.26343,0.631708 1.179197,0 1.26342,0.04211 1.26342,0.631712 0,0.61768 -0.04211,0.631717 -1.895137,0.631717 h -1.895147 v 1.895145 c 0,1.85302 -0.01405,1.895137 -0.631703,1.895137 -0.505374,0 -0.631717,0.126342 -0.631717,0.631716 0,0.589597 -0.08423,0.631712 -1.263428,0.631712 h -1.26343 v 1.895137 1.895147 h -1.263424 c -1.179194,0 -1.26343,0.0421 -1.26343,0.631716 v 0.631704 h 3.158567 3.158565 v 0.631717 c 0,0.505373 0.126352,0.631711 0.631717,0.631711 0.505374,0 0.631717,-0.126338 0.631717,-0.631711 0,-0.505366 0.126338,-0.631717 0.631713,-0.631717 0.5896,0 0.631717,0.08423 0.631717,1.263428 v 1.263434 h -1.895147 c -1.853016,0 -1.895137,0.01405 -1.895137,0.631713 0,0.505365 -0.126338,0.631707 -0.631713,0.631707 -0.505373,0 -0.631715,0.126351 -0.631715,0.631717 0,0.589596 -0.08423,0.631713 -1.26343,0.631713 h -1.263424 z m 2.526854,-0.631713 c 0,-1.179206 -0.04211,-1.263434 -0.631717,-1.263434 -0.589598,0 -0.631713,0.08423 -0.631713,1.263434 0,1.179193 0.04211,1.26342 0.631713,1.26342 0.5896,0 0.631717,-0.08423 0.631717,-1.26342 z m -2.526854,-6.948849 c 0,-0.505374 -0.126339,-0.631717 -0.631713,-0.631717 -0.505374,0 -0.631717,0.126343 -0.631717,0.631717 0,0.505366 0.126343,0.631703 0.631717,0.631703 0.505374,0 0.631713,-0.126337 0.631713,-0.631703 z m 3.790282,-3.790282 c 0,-0.505375 -0.126338,-0.631717 -0.631713,-0.631717 -0.505373,0 -0.631715,0.126342 -0.631715,0.631717 0,0.505365 0.126342,0.631707 0.631715,0.631707 0.505375,0 0.631713,-0.126342 0.631713,-0.631707 z M 40.662429,35.05219 c 0,-0.505375 0.126337,-0.631713 0.631711,-0.631713 0.505366,0 0.631709,0.126338 0.631709,0.631713 0,0.505365 -0.126343,0.631707 -0.631709,0.631707 -0.505374,0 -0.631711,-0.126342 -0.631711,-0.631707 z m -13.89771,-5.685425 c 0,-1.179198 0.04211,-1.263434 0.631717,-1.263434 0.505375,0 0.631713,0.126352 0.631713,0.631717 0,0.505375 0.126343,0.631717 0.631717,0.631717 0.505365,0 0.631703,-0.126342 0.631703,-0.631717 0,-0.505365 0.126351,-0.631717 0.631717,-0.631717 0.617675,0 0.631717,-0.0421 0.631717,-1.895132 0,-1.853031 0.01405,-1.895146 0.631712,-1.895146 0.505374,0 0.631717,-0.126342 0.631717,-0.631707 0,-0.505375 0.126342,-0.631717 0.631716,-0.631717 0.505361,0 0.631704,0.126342 0.631704,0.631717 0,0.505365 0.126352,0.631707 0.631716,0.631707 0.505375,0 0.631713,0.126347 0.631713,0.631713 0,0.505374 -0.126338,0.631717 -0.631713,0.631717 -0.5896,0 -0.631716,0.08423 -0.631716,1.263428 0,1.179198 0.0421,1.26342 0.631716,1.26342 0.505375,0 0.631713,0.126352 0.631713,0.631717 0,0.505375 -0.126338,0.631717 -0.631713,0.631717 -0.505364,0 -0.631716,-0.126342 -0.631716,-0.631717 0,-0.589596 -0.08423,-0.631717 -1.26342,-0.631717 -1.179207,0 -1.263429,0.04211 -1.263429,0.631717 0,0.505375 -0.126343,0.631717 -0.631717,0.631717 -0.505366,0 -0.631717,0.126338 -0.631717,0.631713 0,0.5896 -0.08423,0.631717 -1.26342,0.631717 h -1.26343 z m 22.741688,0.631713 c 0,-0.589598 -0.08423,-0.631713 -1.26342,-0.631713 -1.179198,0 -1.263428,-0.0421 -1.263428,-0.631717 0,-0.617675 0.0421,-0.631717 1.895145,-0.631717 1.853016,0 1.895137,0.01405 1.895137,0.631717 0,0.505375 0.126338,0.631717 0.631713,0.631717 0.505374,0 0.631717,-0.126342 0.631717,-0.631717 0,-0.589596 0.08423,-0.631717 1.26342,-0.631717 1.179206,0 1.263428,0.04211 1.263428,0.631717 0,0.505375 -0.126338,0.631717 -0.631713,0.631717 -0.505364,0 -0.631715,0.126338 -0.631715,0.631713 0,0.617679 -0.04211,0.631717 -1.895137,0.631717 -1.853026,0 -1.895147,-0.01405 -1.895147,-0.631717 z m -25.268543,-1.26343 c 0,-0.505365 0.126343,-0.631717 0.631714,-0.631717 0.505371,0 0.631714,0.126352 0.631714,0.631717 0,0.505375 -0.126343,0.631717 -0.631714,0.631717 -0.505371,0 -0.631714,-0.126342 -0.631714,-0.631717 z m 31.585689,0 c 0,-0.505365 0.126338,-0.631717 0.631713,-0.631717 0.505364,0 0.631707,0.126352 0.631707,0.631717 0,0.505375 -0.126343,0.631717 -0.631707,0.631717 -0.505375,0 -0.631713,-0.126342 -0.631713,-0.631717 z M 38.135565,26.208199 c 0,-0.505374 0.126352,-0.631716 0.631717,-0.631716 0.505375,0 0.631713,0.126342 0.631713,0.631716 0,0.50537 -0.126338,0.631712 -0.631713,0.631712 -0.505365,0 -0.631717,-0.126342 -0.631717,-0.631712 z m 13.897706,-0.631716 c 0,-1.179198 0.0421,-1.26343 0.631716,-1.26343 0.505361,0 0.631704,0.126347 0.631704,0.631713 0,0.505374 0.126351,0.631717 0.631715,0.631717 0.505375,0 0.631713,0.126342 0.631713,0.631716 0,0.589597 -0.08423,0.631712 -1.263428,0.631712 h -1.26342 z M 29.291569,22.417916 c 0,-0.505372 -0.126338,-0.631715 -0.631703,-0.631715 -0.505374,0 -0.631717,-0.126343 -0.631717,-0.631717 0,-0.50536 -0.126338,-0.631712 -0.631713,-0.631712 -0.505374,0 -0.631717,-0.126342 -0.631717,-0.631708 0,-0.505374 0.126343,-0.631712 0.631717,-0.631712 0.505375,0 0.631713,-0.126342 0.631713,-0.631716 0,-0.505375 0.126343,-0.631717 0.631717,-0.631717 0.505365,0 0.631703,0.126342 0.631703,0.631717 0,0.505374 -0.126338,0.631716 -0.631703,0.631716 -0.505374,0 -0.631717,0.126338 -0.631717,0.631712 0,0.505366 0.126343,0.631708 0.631717,0.631708 0.505365,0 0.631703,0.126352 0.631703,0.631712 0,0.505374 0.126351,0.631717 0.631717,0.631717 0.505374,0 0.631717,0.126343 0.631717,0.631715 0,0.505375 -0.126343,0.631713 -0.631717,0.631713 -0.505366,0 -0.631717,-0.126338 -0.631717,-0.631713 z m 17.68799,-5.05371 c 0,-0.505365 0.126342,-0.631717 0.631715,-0.631717 0.505375,0 0.631713,0.126352 0.631713,0.631717 0,0.505374 -0.126338,0.631713 -0.631713,0.631713 -0.505373,0 -0.631715,-0.126339 -0.631715,-0.631713 z M 22.974437,14.837352 c 0,-0.505374 0.126343,-0.631712 0.631714,-0.631712 0.505372,0 0.631713,0.126338 0.631713,0.631712 0,0.505374 -0.126341,0.631717 -0.631713,0.631717 -0.505371,0 -0.631714,-0.126343 -0.631714,-0.631717 z m 5.053712,0 c 0,-0.505374 0.126343,-0.631712 0.631717,-0.631712 0.505365,0 0.631703,0.126338 0.631703,0.631712 0,0.505374 -0.126338,0.631717 -0.631703,0.631717 -0.505374,0 -0.631717,-0.126343 -0.631717,-0.631717 z m 21.478258,-1.263428 c 0,-0.505366 0.126352,-0.631717 0.631717,-0.631717 0.505374,0 0.631717,0.126351 0.631717,0.631717 0,0.505374 -0.126343,0.631716 -0.631717,0.631716 -0.505365,0 -0.631717,-0.126342 -0.631717,-0.631716 z M 21.711011,9.7836447 c 0,-0.5053645 -0.126344,-0.6317169 -0.631714,-0.6317169 -0.505372,0 -0.631715,-0.1263419 -0.631715,-0.6317074 0,-0.5053739 -0.126342,-0.6317127 -0.631713,-0.6317127 -0.505371,0 -0.631713,-0.1263419 -0.631713,-0.6317158 0,-0.505375 0.126342,-0.6317179 0.631713,-0.6317179 0.505371,0 0.631713,0.1263429 0.631713,0.6317179 0,0.5053739 0.126343,0.6317158 0.631715,0.6317158 0.50537,0 0.631714,0.1263388 0.631714,0.6317127 0,0.5053655 0.126343,0.6317074 0.631712,0.6317074 0.505372,0 0.631714,0.1263524 0.631714,0.6317169 0,0.5053753 -0.126342,0.6317123 -0.631714,0.6317123 -0.505369,0 -0.631712,-0.126337 -0.631712,-0.6317123 z m 22.741694,0 c 0,-0.5053645 0.126342,-0.6317169 0.631717,-0.6317169 0.505364,0 0.631707,-0.1263419 0.631707,-0.6317074 0,-0.5053739 0.126347,-0.6317127 0.631713,-0.6317127 0.505374,0 0.631717,0.1263388 0.631717,0.6317127 0,0.5053655 -0.126343,0.6317074 -0.631717,0.6317074 -0.505366,0 -0.631713,0.1263524 -0.631713,0.6317169 0,0.5053753 -0.126343,0.6317123 -0.631707,0.6317123 -0.505375,0 -0.631717,-0.126337 -0.631717,-0.6317123 z m 2.526854,-3.7902834 c 0,-0.5895984 0.08423,-0.6317158 1.263428,-0.6317158 1.179198,0 1.26342,0.042122 1.26342,0.6317158 0,0.5895973 -0.08423,0.6317127 -1.26342,0.6317127 -1.179198,0 -1.263428,-0.042111 -1.263428,-0.6317127 z m 1.263428,49.9053757 v -2.526849 h -0.631713 -0.631715 v 2.526849 2.526854 h 0.631715 0.631713 z m -24.005123,0.631717 c 0,-0.505375 -0.126341,-0.631717 -0.631713,-0.631717 -0.505371,0 -0.631714,0.126342 -0.631714,0.631717 0,0.505374 0.126343,0.631713 0.631714,0.631713 0.505372,0 0.631713,-0.126339 0.631713,-0.631713 z m 17.687985,-1.895146 c 0,-1.179198 0.0421,-1.26342 0.631717,-1.26342 0.505367,0 0.631709,-0.126342 0.631709,-0.631717 0,-0.505374 0.126343,-0.631716 0.631717,-0.631716 0.505374,0 0.631713,0.126342 0.631713,0.631716 0,0.505375 0.126342,0.631717 0.631717,0.631717 0.617675,0 0.631707,-0.0421 0.631707,-1.895146 v -1.895137 h -1.895137 -1.895143 v -1.263433 c 0,-1.179194 -0.04211,-1.26343 -0.631709,-1.26343 -0.505374,0 -0.631711,-0.126342 -0.631711,-0.631703 0,-0.505374 0.126337,-0.631716 0.631711,-0.631716 0.505366,0 0.631709,-0.126343 0.631709,-0.631717 0,-0.589597 -0.08423,-0.631713 -1.26342,-0.631713 -1.179198,0 -1.263434,-0.04211 -1.263434,-0.631717 0,-0.505365 0.126342,-0.631716 0.631717,-0.631716 0.589596,0 0.631717,-0.08423 0.631717,-1.26342 0,-1.179208 0.0421,-1.26343 0.631711,-1.26343 0.589602,0 0.631709,0.08423 0.631709,1.26343 0,1.179197 0.0421,1.26342 0.631717,1.26342 0.589594,0 0.631709,-0.08423 0.631709,-1.26342 0,-1.179208 0.04211,-1.26343 0.631717,-1.26343 0.505374,0 0.631713,-0.126342 0.631713,-0.631716 0,-0.505365 -0.126339,-0.631713 -0.631713,-0.631713 -0.505374,0 -0.631717,0.126348 -0.631717,0.631713 0,0.505374 -0.126342,0.631716 -0.631709,0.631716 -0.589602,0 -0.631717,-0.08423 -0.631717,-1.263429 0,-1.179197 -0.04211,-1.263424 -0.631709,-1.263424 -0.505374,0 -0.631711,0.126342 -0.631711,0.631717 0,0.505365 -0.126343,0.631707 -0.631717,0.631707 -0.505375,0 -0.631717,-0.126342 -0.631717,-0.631707 0,-0.505375 -0.126338,-0.631717 -0.631713,-0.631717 -0.505365,0 -0.631717,-0.126339 -0.631717,-0.631713 0,-0.505376 -0.126342,-0.631717 -0.631703,-0.631717 -0.505376,0 -0.631718,0.126341 -0.631718,0.631717 0,0.505374 0.126342,0.631713 0.631718,0.631713 0.505361,0 0.631703,0.126342 0.631703,0.631717 0,0.505365 -0.126342,0.631707 -0.631703,0.631707 -0.505376,0 -0.631718,0.126348 -0.631718,0.631713 0,0.589601 -0.08423,0.631716 -1.263429,0.631716 -1.179208,0 -1.263434,0.04211 -1.263434,0.631717 0,0.505375 -0.126338,0.631713 -0.631713,0.631713 -0.505364,0 -0.631716,0.126342 -0.631716,0.631716 0,0.505366 0.126352,0.631704 0.631716,0.631704 0.505375,0 0.631713,0.126351 0.631713,0.631716 0,0.589597 0.08423,0.631717 1.263434,0.631717 1.179193,0 1.263429,-0.04211 1.263429,-0.631717 0,-0.505365 0.126342,-0.631716 0.631718,-0.631716 0.589597,0 0.631703,0.08423 0.631703,1.263433 0,1.179194 -0.0421,1.26343 -0.631703,1.26343 -0.505376,0 -0.631718,0.126342 -0.631718,0.631716 0,0.505361 -0.126343,0.631703 -0.631717,0.631703 -0.505375,0 -0.631712,-0.126342 -0.631712,-0.631703 0,-0.505374 -0.126343,-0.631716 -0.631717,-0.631716 -0.505374,0 -0.631717,0.126342 -0.631717,0.631716 0,0.505361 0.126343,0.631703 0.631717,0.631703 0.505374,0 0.631717,0.126352 0.631717,0.631717 0,0.589597 0.08423,0.631713 1.263429,0.631713 1.179199,0 1.263421,0.04211 1.263421,0.631716 0,0.589602 0.08423,0.631717 1.26343,0.631717 1.179198,0 1.263434,0.04211 1.263434,0.631713 0,0.505364 -0.126343,0.631707 -0.631717,0.631707 -0.505375,0 -0.631717,0.126352 -0.631717,0.631717 0,0.505374 0.126342,0.631713 0.631717,0.631713 0.617675,0 0.631717,0.0421 0.631717,1.895145 0,1.853022 0.01405,1.895137 0.631711,1.895137 0.589602,0 0.631709,-0.08423 0.631709,-1.263429 z m 0,-3.158566 c 0,-0.505365 0.126351,-0.631717 0.631717,-0.631717 0.505367,0 0.631709,0.126352 0.631709,0.631717 0,0.505374 -0.126342,0.631713 -0.631709,0.631713 -0.505366,0 -0.631717,-0.126339 -0.631717,-0.631713 z m -3.790284,-8.843986 c 0,-0.505374 -0.126342,-0.631716 -0.631703,-0.631716 -0.505376,0 -0.631718,-0.126338 -0.631718,-0.631713 0,-0.589601 0.08423,-0.631717 1.263421,-0.631717 h 1.26343 v 1.26343 c 0,1.179197 -0.04211,1.26342 -0.631713,1.26342 -0.505365,0 -0.631717,-0.126338 -0.631717,-0.631704 z m 7.580564,12.634264 c 0,-0.589596 -0.08423,-0.631712 -1.263424,-0.631712 -1.179194,0 -1.26343,0.04211 -1.26343,0.631712 0,0.589602 0.08423,0.631717 1.26343,0.631717 1.179198,0 1.263424,-0.04211 1.263424,-0.631717 z M 4.0230283,54.0036 c 0,-0.505374 -0.1263433,-0.631712 -0.6317145,-0.631712 -0.5053704,0 -0.6317132,0.126338 -0.6317132,0.631712 0,0.505366 0.1263428,0.631708 0.6317132,0.631708 0.5053712,0 0.6317145,-0.126342 0.6317145,-0.631708 z m 51.8005247,0 c 0,-0.505374 -0.126343,-0.631712 -0.631717,-0.631712 -0.505374,0 -0.631717,0.126338 -0.631717,0.631712 0,0.505366 0.126343,0.631708 0.631717,0.631708 0.505374,0 0.631717,-0.126342 0.631717,-0.631708 z m -1.263434,-2.526858 c 0,-0.505365 0.126343,-0.631717 0.631717,-0.631717 0.505374,0 0.631717,-0.126343 0.631717,-0.631707 0,-0.505371 -0.126343,-0.631713 -0.631717,-0.631713 -0.505374,0 -0.631717,0.126342 -0.631717,0.631713 0,0.505364 -0.126338,0.631707 -0.631713,0.631707 -0.505364,0 -0.631715,0.126352 -0.631715,0.631717 0,0.505374 0.126351,0.631713 0.631715,0.631713 0.505375,0 0.631713,-0.126339 0.631713,-0.631713 z m 5.053716,0 c 0,-0.505365 -0.126342,-0.631717 -0.631716,-0.631717 -0.505375,0 -0.631716,0.126352 -0.631716,0.631717 0,0.505374 0.126341,0.631713 0.631716,0.631713 0.505374,0 0.631716,-0.126339 0.631716,-0.631713 z M 15.393874,48.949888 c 0,-0.505374 -0.126343,-0.631716 -0.631714,-0.631716 -0.50537,0 -0.631714,0.126342 -0.631714,0.631716 0,0.505374 0.126344,0.631717 0.631714,0.631717 0.505371,0 0.631714,-0.126343 0.631714,-0.631717 z m 17.687978,-2.526849 c 0,-0.505374 -0.126343,-0.631716 -0.631704,-0.631716 -0.505374,0 -0.631716,-0.126343 -0.631716,-0.631717 0,-0.505375 -0.126343,-0.631713 -0.631717,-0.631713 -0.505375,0 -0.631712,-0.126343 -0.631712,-0.631717 0,-0.589596 -0.08423,-0.631716 -1.263434,-0.631716 -1.179194,0 -1.26342,0.04211 -1.26342,0.631716 0,0.589597 0.08423,0.631717 1.26342,0.631717 1.179207,0 1.263434,0.04211 1.263434,0.631713 0,0.589601 -0.08423,0.631717 -1.263434,0.631717 -1.179194,0 -1.26342,0.0421 -1.26342,0.631716 v 0.631703 h 2.526854 2.526849 z m 31.585683,-1.263433 c 0,-0.505375 -0.126343,-0.631713 -0.631709,-0.631713 -0.505374,0 -0.631717,0.126338 -0.631717,0.631713 0,0.505374 0.126343,0.631717 0.631717,0.631717 0.505366,0 0.631709,-0.126343 0.631709,-0.631717 z m 0,-2.52685 c 0,-0.505374 -0.126343,-0.631716 -0.631709,-0.631716 -0.505374,0 -0.631717,0.126342 -0.631717,0.631716 0,0.505366 0.126343,0.631704 0.631717,0.631704 0.505366,0 0.631709,-0.126338 0.631709,-0.631704 z M 10.340164,33.78876 V 31.893615 H 8.4450239 6.5498827 v 1.895145 1.895137 h 1.8951412 1.8951401 z m -2.5268538,0 c 0,-0.505374 0.1263419,-0.631717 0.6317137,-0.631717 0.5053708,0 0.6317127,0.126343 0.6317127,0.631717 0,0.505375 -0.1263419,0.631717 -0.6317127,0.631717 -0.5053718,0 -0.6317137,-0.126342 -0.6317137,-0.631717 z m 27.7954048,0 v -1.895145 h -1.895147 -1.895136 v 1.895145 1.895137 h 1.895136 1.895147 z m -2.526863,0 c 0,-0.505374 0.126352,-0.631717 0.631716,-0.631717 0.505375,0 0.631713,0.126343 0.631713,0.631717 0,0.505375 -0.126338,0.631717 -0.631713,0.631717 -0.505364,0 -0.631716,-0.126342 -0.631716,-0.631717 z m 27.795403,0 v -1.895145 h -1.895136 -1.895146 v 1.895145 1.895137 h 1.895146 1.895136 z m -2.526852,0 c 0,-0.505374 0.126341,-0.631717 0.631716,-0.631717 0.505374,0 0.631716,0.126343 0.631716,0.631717 0,0.505375 -0.126342,0.631717 -0.631716,0.631717 -0.505375,0 -0.631716,-0.126342 -0.631716,-0.631717 z m 5.053706,-7.580561 c 0,-0.505374 -0.126337,-0.631716 -0.631711,-0.631716 -0.505375,0 -0.631717,0.126342 -0.631717,0.631716 0,0.50537 0.126342,0.631712 0.631717,0.631712 0.505374,0 0.631711,-0.126342 0.631711,-0.631712 z m -6.317136,-3.790283 c 0,-0.589599 0.08423,-0.631715 1.26343,-0.631715 1.179197,0 1.263432,-0.04211 1.263432,-0.631717 0,-0.617675 0.04211,-0.631712 1.895133,-0.631712 1.853026,0 1.895141,-0.01405 1.895141,-0.631708 0,-0.505374 0.126343,-0.631712 0.631717,-0.631712 0.505366,0 0.631709,-0.126342 0.631709,-0.631716 0,-0.505375 -0.126343,-0.631717 -0.631709,-0.631717 -0.505374,0 -0.631717,0.126342 -0.631717,0.631717 0,0.505374 -0.126337,0.631716 -0.631711,0.631716 -0.589602,0 -0.631717,-0.08423 -0.631717,-1.263433 0,-1.179194 -0.04211,-1.26343 -0.631713,-1.26343 -0.50536,0 -0.631713,-0.126343 -0.631713,-0.631703 0,-0.58961 -0.08423,-0.631717 -1.26342,-0.631717 h -1.263432 v 1.26342 c 0,1.179208 0.04211,1.26343 0.631716,1.26343 0.505374,0 0.631716,-0.126339 0.631716,-0.631713 0,-0.505365 0.126339,-0.631717 0.631713,-0.631717 0.589601,0 0.631707,0.08423 0.631707,1.26343 v 1.263433 h -1.895136 c -1.853031,0 -1.895146,-0.01405 -1.895146,-0.631716 0,-0.505375 -0.126343,-0.631717 -0.631707,-0.631717 h -0.631713 v 2.526853 2.526857 h 0.631713 c 0.505364,0 0.631707,-0.126338 0.631707,-0.631713 z M 34.345281,19.891064 c 0,-0.505374 -0.126338,-0.631712 -0.631713,-0.631712 -0.505364,0 -0.631716,0.126338 -0.631716,0.631712 0,0.505366 0.126352,0.631708 0.631716,0.631708 0.505375,0 0.631713,-0.126342 0.631713,-0.631708 z M 24.237864,18.627636 c 0,-0.505375 -0.126341,-0.631717 -0.631713,-0.631717 -0.505371,0 -0.631714,0.126342 -0.631714,0.631717 0,0.505374 0.126343,0.631716 0.631714,0.631716 0.505372,0 0.631713,-0.126342 0.631713,-0.631716 z m 17.687985,-3.790284 c 0,-0.505374 -0.126343,-0.631712 -0.631709,-0.631712 -0.505374,0 -0.631711,0.126338 -0.631711,0.631712 0,0.505374 0.126337,0.631717 0.631711,0.631717 0.505366,0 0.631709,-0.126343 0.631709,-0.631717 z m 20.214832,-1.263428 c 0,-0.589597 -0.08423,-0.631717 -1.263426,-0.631717 -1.179197,0 -1.26342,0.0421 -1.26342,0.631717 0,0.589596 0.08423,0.631716 1.26342,0.631716 1.179203,0 1.263426,-0.0421 1.263426,-0.631716 z M 9.0767366,12.310504 c 0,-0.505375 -0.1263419,-0.631713 -0.6317127,-0.631713 -0.5053718,0 -0.6317137,0.126338 -0.6317137,0.631713 0,0.505364 0.1263419,0.631703 0.6317137,0.631703 0.5053708,0 0.6317127,-0.126339 0.6317127,-0.631703 z M 35.608715,8.5202204 V 6.625074 h -1.895147 -1.895136 v 1.8951464 1.8951366 h 1.895136 1.895147 z m -2.526863,0 c 0,-0.5053739 0.126352,-0.6317127 0.631716,-0.6317127 0.505375,0 0.631713,0.1263388 0.631713,0.6317127 0,0.5053655 -0.126338,0.6317074 -0.631713,0.6317074 -0.505364,0 -0.631716,-0.1263419 -0.631716,-0.6317074 z M 30.555003,7.8885077 c 0,-1.1791977 -0.04211,-1.2634337 -0.631717,-1.2634337 -0.589596,0 -0.631717,0.084233 -0.631717,1.2634337 0,1.1791936 0.04211,1.2634201 0.631717,1.2634201 0.589596,0 0.631717,-0.084233 0.631717,-1.2634201 z M 44.452705,5.3616455 V 4.0982254 h -1.26343 c -1.179195,0 -1.263426,0.042111 -1.263426,0.6317147 0,0.5053645 0.126351,0.6317054 0.631717,0.6317054 0.505367,0 0.631709,0.1263513 0.631709,0.6317158 0,0.505375 0.126343,0.6317127 0.631717,0.6317127 0.589596,0 0.631713,-0.084233 0.631713,-1.2634285 z m 10.107414,-1.895136 c 0,-0.5053739 -0.126338,-0.6317147 -0.631713,-0.6317147 -0.505364,0 -0.631715,0.1263408 -0.631715,0.6317147 0,0.505374 0.126351,0.6317159 0.631715,0.6317159 0.505375,0 0.631713,-0.1263419 0.631713,-0.6317159 z M 24.237864,64.111015 c 0,-0.505374 0.126343,-0.631712 0.631714,-0.631712 0.505371,0 0.631714,0.126338 0.631714,0.631712 0,0.505375 -0.126343,0.631717 -0.631714,0.631717 -0.505371,0 -0.631714,-0.126342 -0.631714,-0.631717 z m 25.268543,-3.790283 c 0,-0.617675 0.04211,-0.631712 1.895147,-0.631712 1.85303,0 1.895137,0.01405 1.895137,0.631712 0,0.61768 -0.04211,0.631717 -1.895137,0.631717 -1.853026,0 -1.895147,-0.01405 -1.895147,-0.631717 z m 1.263434,-2.526849 c 0,-0.617676 0.04211,-0.631716 1.895146,-0.631716 1.853017,0 1.895132,0.01405 1.895132,0.631716 0,0.617667 -0.04211,0.631708 -1.895132,0.631708 -1.853031,0 -1.895146,-0.01405 -1.895146,-0.631708 z M 16.657301,55.26702 c 0,-0.505361 0.126343,-0.631712 0.631715,-0.631712 0.505369,0 0.631712,0.126351 0.631712,0.631712 0,0.505374 -0.126343,0.631717 -0.631712,0.631717 -0.505372,0 -0.631715,-0.126343 -0.631715,-0.631717 z m 49.273662,0 c 0,-0.505361 0.126343,-0.631712 0.631717,-0.631712 0.505374,0 0.631713,0.126351 0.631713,0.631712 0,0.505374 -0.126339,0.631717 -0.631713,0.631717 -0.505374,0 -0.631717,-0.126343 -0.631717,-0.631717 z m 0,-2.526849 c 0,-0.505374 0.126343,-0.631716 0.631717,-0.631716 0.505374,0 0.631713,0.126342 0.631713,0.631716 0,0.505375 -0.126339,0.631717 -0.631713,0.631717 -0.505374,0 -0.631717,-0.126342 -0.631717,-0.631717 z m -1.263428,-2.526853 c 0,-0.505371 0.126346,-0.631713 0.631711,-0.631713 0.505375,0 0.631717,0.126342 0.631717,0.631713 0,0.505364 -0.126342,0.631707 -0.631717,0.631707 -0.505365,0 -0.631711,-0.126343 -0.631711,-0.631707 z M 0.23274634,4.7299401 V 0.30794299 H 4.6547415 9.0767366 V 4.7299401 9.1519278 H 4.6547415 0.23274634 Z m 7.58056386,0 V 1.5713641 H 4.6547415 1.4961727 v 3.158576 3.1585676 h 3.1585688 3.1585687 z m -5.0537096,0 V 2.8347948 H 4.6547415 6.5498827 V 4.7299401 6.625074 H 4.6547415 2.7596006 Z m 7.5805634,3.7902803 c 0,-0.5053739 0.126343,-0.6317127 0.631714,-0.6317127 0.505371,0 0.631714,0.1263388 0.631714,0.6317127 0,0.5053655 -0.126343,0.6317074 -0.631714,0.6317074 -0.505371,0 -0.631714,-0.1263419 -0.631714,-0.6317074 z M 58.350403,4.7299401 V 0.30794299 h 4.421995 4.421995 V 4.7299401 9.1519278 h -4.421995 -4.421995 z m 7.58056,0 v -3.158576 h -3.158565 -3.158563 v 3.158576 3.1585676 h 3.158563 3.158565 z m -5.053708,0 V 2.8347948 h 1.895143 1.895137 V 4.7299401 6.625074 h -1.895137 -1.895143 z m -50.537091,0 c 0,-1.8530289 0.01404,-1.8951453 0.631714,-1.8951453 0.505371,0 0.631714,0.1263408 0.631714,0.6317147 0,0.5895984 0.08422,0.6317159 1.263427,0.6317159 1.179198,0 1.263427,0.042111 1.263427,0.6317147 0,0.5895984 -0.08422,0.6317054 -1.263427,0.6317054 -1.179198,0 -1.263427,0.042122 -1.263427,0.6317158 0,0.505375 -0.126343,0.6317127 -0.631714,0.6317127 -0.617676,0 -0.631714,-0.042111 -0.631714,-1.8951339 z m 26.53198,-1.2634306 c 0,-0.5895983 -0.08423,-0.6317147 -1.263429,-0.6317147 H 34.345281 V 1.5713641 0.30794299 h 1.263434 c 1.179193,0 1.263429,0.0421112 1.263429,0.63171478 0,0.50536553 0.126342,0.63170633 0.631718,0.63170633 0.505361,0 0.631703,-0.1263408 0.631703,-0.63170633 0,-0.50537393 0.126352,-0.63171478 0.631717,-0.63171478 0.505375,0 0.631713,0.12634085 0.631713,0.63171478 0,0.50536553 -0.126338,0.63170633 -0.631713,0.63170633 -0.5896,0 -0.631717,0.084233 -0.631717,1.2634307 0,1.1791956 -0.0421,1.2634306 -0.631703,1.2634306 -0.505376,0 -0.631718,-0.1263419 -0.631718,-0.6317159 z M 12.867019,2.2030789 c 0,-0.5895983 -0.08422,-0.6317148 -1.263427,-0.6317148 -1.1792,0 -1.263428,-0.042111 -1.263428,-0.63170633 V 0.30794299 h 3.158569 3.158568 v 0.63171478 c 0,0.58959833 -0.08422,0.63170633 -1.263427,0.63170633 -1.179199,0 -1.263428,0.042111 -1.263428,0.6317148 0,0.505374 -0.126342,0.6317159 -0.631713,0.6317159 -0.505371,0 -0.631714,-0.1263419 -0.631714,-0.6317159 z m 12.634273,0 c 0,-0.5053644 0.126343,-0.6317148 0.631714,-0.6317148 0.50537,0 0.631713,0.1263504 0.631713,0.6317148 0,0.505374 -0.126343,0.6317159 -0.631713,0.6317159 -0.505371,0 -0.631714,-0.1263419 -0.631714,-0.6317159 z M 43.189275,0.93965777 c 0,-0.50537393 0.126343,-0.63171478 0.631717,-0.63171478 0.505374,0 0.631713,0.12634085 0.631713,0.63171478 0,0.50536553 -0.126339,0.63170633 -0.631713,0.63170633 -0.505374,0 -0.631717,-0.1263408 -0.631717,-0.63170633 z"
       id="path1" /></g></svg>
