<?xml version="1.0" encoding="UTF-8" standalone="no"?>
<!-- Created with Inkscape (http://www.inkscape.org/) -->

<svg
   width="50mm"
   height="50.016415mm"
   viewBox="0 0 50 50.016415"
   version="1.1"
   id="svg1"
   xml:space="preserve"
   inkscape:version="1.4 (e7c3feb100, 2024-10-09)"
   sodipodi:docname="equitriton-qr-code.svg"
   xmlns:inkscape="http://www.inkscape.org/namespaces/inkscape"
   xmlns:sodipodi="http://sodipodi.sourceforge.net/DTD/sodipodi-0.dtd"
   xmlns="http://www.w3.org/2000/svg"
   xmlns:svg="http://www.w3.org/2000/svg"><sodipodi:namedview
     id="namedview1"
     pagecolor="#ffffff"
     bordercolor="#666666"
     borderopacity="1.0"
     inkscape:showpageshadow="2"
     inkscape:pageopacity="0.0"
     inkscape:pagecheckerboard="0"
     inkscape:deskcolor="#d1d1d1"
     inkscape:document-units="mm"
     inkscape:zoom="1.3884325"
     inkscape:cx="144.40745"
     inkscape:cy="229.03525"
     inkscape:window-width="1290"
     inkscape:window-height="1331"
     inkscape:window-x="26"
     inkscape:window-y="23"
     inkscape:window-maximized="0"
     inkscape:current-layer="layer1" /><defs
     id="defs1" /><g
     inkscape:label="Layer 1"
     inkscape:groupmode="layer"
     id="layer1"
     transform="translate(-7.6502168,-14.262572)"><path
       style="fill:#000000;stroke-width:1.31191"
       d="m 7.6502168,58.18816 v -6.090784 l 5.9876202,0.09498 5.987618,0.09498 v 5.900836 5.900844 l -5.987618,0.09499 -5.9876202,0.09498 z m 10.4132502,0 V 53.849306 H 13.724614 9.3857588 v 4.338854 4.338854 h 4.3388552 4.338853 z m -6.942166,0 v -2.603307 h 2.603313 2.603312 v 2.603307 2.60332 h -2.603312 -2.603313 z m 10.41325,1.735545 v -4.338852 h 0.86777 0.867771 v 0.867773 0.867759 h 0.867772 0.86777 v 0.867775 0.867775 h 2.603312 2.603313 v 0.86777 0.867775 h -0.86777 -0.867772 v 1.735534 1.735545 h -1.735541 -1.735542 v -0.867775 -0.86777 h -0.86777 -0.867772 v 0.86777 0.867775 h -0.867771 -0.86777 z m 5.206625,1.735549 V 60.79148 h -0.867772 -0.86777 v 0.867774 0.86776 h 0.86777 0.867772 z m 6.595058,1.73553 v -0.86777 h -0.86777 -0.867772 v -0.86776 -0.867774 h 0.867772 0.86777 v 0.867774 0.86776 h 4.338854 4.338855 v -0.86776 -0.867774 h -0.86777 -0.867774 v -0.867775 -0.86777 h -0.86777 -0.86777 v 0.86777 0.867775 h -0.867771 -0.867772 v -0.867775 -0.86777 h -0.86777 -0.86777 V 58.18816 57.320385 h -1.735542 -1.735542 v -0.867759 -0.867773 h -0.694216 -0.694217 v 0.867773 0.867759 h -0.86777 -0.867772 v -1.735532 -1.735547 h 0.867772 0.86777 v -0.86777 -0.867773 h -0.86777 -0.867772 v -0.86776 -0.867774 h -0.867771 -0.86777 v -2.603306 -2.60332 h -0.867772 -0.86777 v 3.471093 3.471067 h 0.86777 0.867772 v 0.867773 0.86777 h -0.867772 -0.86777 v -0.86777 -0.867773 h -0.86777 -0.867772 v 0.867773 0.86777 h -0.867771 -0.86777 v -1.735543 -1.735534 h 0.86777 0.867771 v -2.603306 -2.60332 h 0.867772 0.86777 v -2.603305 -2.603319 h -0.86777 -0.867772 v 0.867773 0.867773 h -0.867771 -0.86777 v -0.867773 -0.867773 h -1.735542 -1.735542 v 0.867773 0.867773 h 0.867772 0.86777 v 0.867773 0.867772 h 0.86777 0.867772 v 1.735533 1.735546 h -2.603312 -2.603313 v 0.867774 0.867773 h 1.735541 1.735542 v 0.86776 0.867773 h -1.735542 -1.735541 v -0.867773 -0.86776 h -0.867771 -0.867771 v 0.86776 0.867773 h -1.735542 -1.735541 v -2.603306 -2.60332 H 10.253529 9.3857588 v 2.60332 2.603306 H 8.5179872 7.6502168 V 46.907149 43.43607 H 8.5179872 9.3857588 V 42.568298 41.700525 H 8.5179872 7.6502168 v -2.429754 -2.429768 h 1.735542 1.7355422 v 0.694221 0.694222 H 10.253529 9.3857588 v 0.867759 0.867774 h 0.8677702 0.867772 v 1.735546 1.735545 h 0.867771 0.86777 v -0.867772 -0.867773 h 1.735542 1.735542 v -0.867773 -0.867773 h 0.867771 0.86777 v -0.867774 -0.867759 h -1.735541 -1.735542 v 0.867759 0.867774 h -0.86777 -0.867772 v -1.561981 -1.561995 h 0.867772 0.86777 V 35.10547 33.369925 h -0.86777 -0.867772 v -0.867773 -0.867773 h -0.86777 -0.867771 V 30.766605 29.898846 H 10.253529 9.3857588 v 0.867759 0.867774 H 8.5179872 7.6502168 V 29.898846 28.1633 h 4.3388552 4.338854 v 0.867773 0.867773 h 0.867771 0.86777 V 29.031073 28.1633 h 4.338854 4.338855 v 0.867773 0.867773 h -0.867772 -0.86777 v 1.735533 1.735546 h 0.86777 0.867772 v -0.867773 -0.867773 h 3.297528 3.29753 v -0.867774 -0.867759 h -0.86777 -0.867772 v -2.603319 -2.603319 h -0.694216 -0.694217 v 2.603319 2.603319 h -0.86777 -0.867772 v -2.603319 -2.603319 h 0.867772 0.86777 v -0.86776 -0.867773 h -0.86777 -0.867772 v -0.867773 -0.867773 h -0.867771 -0.86777 v 2.603319 2.603306 h -0.867772 -0.86777 v -2.603306 -2.603319 h -1.735542 -1.735541 v -0.867773 -0.867773 h 0.86777 0.867771 v -0.86776 -0.867773 h -0.867771 -0.86777 v -0.867773 -0.867774 h 0.86777 0.867771 V 15.14673 14.278957 h 0.867772 0.86777 v 1.735546 1.735547 h 0.86777 0.867772 v -0.867773 -0.867774 h 5.900841 5.900842 V 15.14673 14.278957 h 2.603314 2.60331 v 0.867773 0.867773 h -0.86777 -0.86777 v 0.867774 0.867773 h 0.86777 0.86777 v 1.735533 1.735546 h -0.86777 -0.86777 v -0.867773 -0.867773 h -0.86777 -0.867774 V 17.75005 16.014503 h -0.86777 -0.86777 v 0.867774 0.867773 h -0.867771 -0.867772 v 0.867773 0.86776 h -0.86777 -0.86777 v 0.867773 0.867773 h 0.86777 0.86777 v 0.867773 0.867773 h 0.867772 0.867771 v -0.867773 -0.867773 h 0.86777 0.86777 v 0.867773 0.867773 h 0.867774 0.86777 v 0.867773 0.86776 h 0.86777 0.86777 v 1.735546 1.735546 h 0.867773 0.86777 v 1.735546 1.735533 h -1.735543 -1.73554 v 1.735546 1.735545 h 0.86777 0.86777 v -0.867773 -0.867772 h 1.735543 1.735543 V 30.766605 28.1633 h 0.86777 0.867774 v 0.867773 0.867773 h 0.867773 0.86776 V 29.031073 28.1633 h 0.867773 0.86777 v 1.735546 1.735533 h 0.867773 0.867775 V 29.898846 28.1633 h 0.86777 0.867775 v 1.735546 1.735533 h -0.867775 -0.86777 v 0.867773 0.867773 h -0.867775 -0.867773 v 0.867772 0.867773 h -0.86777 -0.867773 v 0.86776 0.867773 h 0.867773 0.86777 v 0.694221 0.694222 h 0.867773 0.867775 v -0.694222 -0.694221 h 0.86777 0.867775 v 0.694221 0.694222 h 0.86776 0.867775 v 1.735533 1.735546 h -1.735535 -1.735545 v -0.867773 -0.867773 h -1.735548 -1.735543 v 0.867773 0.867773 h -0.86776 -0.867773 v 0.867773 0.867772 h 1.735533 1.735543 v 0.86776 0.867773 h 0.867773 0.867775 v 0.867773 0.867773 h 1.735545 1.735535 v 0.867774 0.867773 h -0.867775 -0.86776 v 1.735533 1.735534 h -0.867775 -0.86777 v 0.867773 0.86777 h 1.735545 1.735535 v 1.735547 1.735532 h -2.60331 -2.603318 v -1.735532 -1.735547 h -0.86777 -0.867773 v 1.735547 1.735532 h -0.86776 -0.867773 v 1.73555 1.735545 h -1.735544 -1.735543 v 0.867774 0.86776 h 0.86777 0.867773 v 0.86777 0.867775 h -6.94217 -6.942165 z m 10.413249,-3.471079 v -0.86777 h -0.86777 -0.86777 v -2.603309 -2.60332 h -0.86777 -0.867774 v -1.735543 -1.735534 h 0.867774 0.86777 v -0.867773 -0.86776 h -0.86777 -0.867774 v 0.86776 0.867773 h -0.86777 -0.86777 v -1.735533 -1.735547 h 0.86777 0.86777 v -0.867773 -0.867773 h -0.86777 -0.86777 V 44.30383 43.43607 h 1.73554 1.735544 v -0.867772 -0.867773 h -2.603314 -2.603313 v 0.867773 0.867772 h -0.86777 -0.86777 v 0.86776 0.867773 h 1.73554 1.735543 v 0.867773 0.867773 h -0.867771 -0.867772 v 2.603307 2.603307 h -0.86777 -0.86777 v 0.867773 0.86777 h 0.86777 0.86777 v 0.867773 0.867774 h 0.867772 0.867771 v -0.867774 -0.867773 h 0.86777 0.86777 v 2.60332 2.603309 h 0.867774 0.86777 v 0.86777 0.867775 h 0.86777 0.86777 z m -6.942167,-6.942169 v -0.867773 h 0.867772 0.867771 v 0.867773 0.86777 h -0.867771 -0.867772 z m 1.735543,5.206624 v -0.867775 h -0.867771 -0.867772 v 0.867775 0.867775 h 0.867772 0.867771 z m 8.67771,0 v -0.867775 h -0.867773 -0.86777 v 0.867775 0.867775 h 0.86777 0.867773 z M 33.336234,54.717079 v -0.867773 h -0.86777 -0.867772 v 0.867773 0.867774 h 0.867772 0.86777 z m 15.619879,-1.735543 v -2.603307 h -2.603317 -2.603313 v 2.603307 2.603317 h 2.603313 2.603317 z m -3.471087,0 v -0.867773 h 0.86777 0.867773 v 0.867773 0.86777 h -0.867773 -0.86777 z M 33.336234,50.378229 v -1.735533 h 0.867771 0.867771 V 47.774923 46.907149 H 34.204005 33.336234 V 45.171603 43.43607 h -2.429758 -2.429759 v -1.735545 -1.735546 h 0.867772 0.86777 v -0.867774 -0.867759 h 0.694217 0.694216 V 37.535224 36.841003 H 30.906476 30.212259 V 35.10547 33.369925 h -0.86777 -0.867772 v 1.735545 1.735533 h -0.867771 -0.86777 V 35.97323 35.10547 h -0.867772 -0.86777 v 0.86776 0.867773 h 0.86777 0.867772 v 4.165301 4.165299 h 1.735541 1.735542 v 0.867773 0.867773 h -0.86777 -0.867772 v 1.735547 1.735533 h 1.561987 1.561988 v 0.867774 0.86776 h 0.867772 0.86777 z M 28.476717,37.535224 v -0.694221 h 0.867772 0.86777 v 0.694221 0.694222 h -0.86777 -0.867772 z m 25.68602,13.710779 v -0.867774 h -1.735548 -1.735543 v 0.867774 0.86776 h 1.735543 1.735548 z m -39.570353,-3.47108 v -0.867774 h 0.867771 0.867771 v -0.867773 -0.867773 h 1.735541 1.735542 V 44.30383 43.43607 h -3.471083 -3.471084 v 0.86776 0.867773 h 0.867772 0.86777 v 0.867773 0.867773 h -0.86777 -0.867772 v 0.867774 0.867773 h 0.867772 0.86777 z m 39.570353,0 V 46.907149 H 52.427189 50.691646 V 46.039376 45.171603 H 48.956113 47.220569 V 43.43607 41.700525 h -0.867773 -0.86777 v -0.867773 -0.867773 h 2.603313 2.603307 v -1.561981 -1.561995 h -2.603307 -2.603313 v 0.694221 0.694222 h -1.735543 -1.73554 V 36.667451 35.10547 h -2.603314 -2.603313 v 2.429754 2.429755 h 1.735543 1.73554 v -0.867774 -0.867759 h 0.867774 0.86777 v 0.867759 0.867774 h 0.86777 0.86777 v 2.603319 2.603305 h -0.86777 -0.86777 v 0.867773 0.867773 h 4.338853 4.33885 v 0.867774 0.867773 h 1.735543 1.735548 z M 38.542859,37.535224 v -0.694221 h 0.86777 0.86777 v 0.694221 0.694222 h -0.86777 -0.86777 z m -3.471083,3.297528 v -0.867773 h -1.735542 -1.735542 v 0.867773 0.867773 h 1.735542 1.735542 z M 19.799009,37.535224 v -0.694221 h 0.86777 0.867772 V 35.97323 35.10547 h -0.867772 -0.86777 v -0.867773 -0.867772 h 1.735542 1.735541 v -1.735546 -1.735533 h -0.867771 -0.86777 v 0.867759 0.867774 h -0.867772 -0.86777 v -0.867774 -0.867759 h -0.86777 -0.867772 v 0.867759 0.867774 h 0.867772 0.86777 v 0.867773 0.867773 h -1.735542 -1.735541 v 0.867772 0.867773 h 1.735541 1.735542 v 0.86776 0.867773 h -0.86777 -0.867772 v 0.694221 0.694222 h 0.867772 0.86777 z m 15.272767,-3.297527 v -0.867772 h 0.86777 0.86777 v -0.867773 -0.867773 h 0.867772 0.867771 v 0.867773 0.867773 h 0.86777 0.86777 v -1.735546 -1.735533 h 0.867774 0.86777 v -2.603319 -2.603319 h -0.86777 -0.867774 v -0.86776 -0.867773 h -0.86777 -0.86777 v 0.867773 0.86776 h -0.867771 -0.867772 v 2.603319 2.603319 h -0.86777 -0.86777 v 0.867759 0.867774 h -0.867771 -0.867771 v 0.867773 0.867773 h -0.86777 -0.867772 v 0.867772 0.867773 h 1.735542 1.735542 z m 3.471083,-7.809943 v -1.735546 h 0.86777 0.86777 v 1.735546 1.735546 h -0.86777 -0.86777 z m 12.148787,6.074398 v -0.867773 h -0.86776 -0.867773 v 0.867773 0.867773 h 0.867773 0.86776 z m -34.36372,-1.735547 v -0.867759 h -1.735542 -1.735542 v 0.867759 0.867774 h 1.735542 1.735542 z m 18.74385,-4.338851 v -1.735546 h -0.867771 -0.867771 v 1.735546 1.735546 h 0.867771 0.867771 z m -3.471084,-4.338852 v -0.867773 h 0.867772 0.86777 v -0.867773 -0.867773 h 0.867771 0.867771 v -0.86776 -0.867773 h -1.735542 -1.735542 v 0.867773 0.86776 h -0.694216 -0.694217 v -0.86776 -0.867773 h -0.86777 -0.867772 v 1.735533 1.735546 h 0.867772 0.86777 v 0.867773 0.867773 h 0.694217 0.694216 z m -4.859516,-1.735546 v -0.867773 h -0.867772 -0.86777 v 0.867773 0.867773 h 0.86777 0.867772 z m 22.214937,43.041428 v -0.86777 h 0.867773 0.86776 v -0.86776 -0.867774 h 0.867773 0.86777 v -0.867775 -0.86777 h 1.735548 1.735545 v 0.86777 0.867775 h 0.86776 0.867775 v 0.867774 0.86776 h -0.867775 -0.86776 v -0.86776 -0.867774 h -0.867775 -0.86777 v 1.735534 1.735545 H 51.559419 48.956113 Z M 55.898282,44.30383 v -0.86776 h 0.86776 0.867775 v 0.86776 0.867773 h -0.867775 -0.86776 z M 7.6502168,34.237697 v -0.867772 h 1.735542 1.7355422 v 0.867772 0.867773 H 9.3857588 7.6502168 Z m 48.2480652,0 v -0.867772 h 0.86776 0.867775 v 0.867772 0.867773 h -0.867775 -0.86776 z M 7.8897169,26.204441 7.6502168,25.96494 v -5.851178 -5.85119 l 5.9876202,0.09498 5.987618,0.09498 v 5.900846 5.900833 l -5.74812,0.09485 -5.7481192,0.09485 z M 18.063467,20.353356 V 16.014503 H 13.724614 9.3857588 v 4.338853 4.338852 h 4.3388552 4.338853 z m -6.942166,0 V 17.75005 h 2.603313 2.603312 v 2.603306 2.603319 h -2.603312 -2.603313 z m 10.41325,4.338852 v -1.735533 h 0.86777 0.867771 v 1.735533 1.735546 h -0.867771 -0.86777 z m 24.189975,1.512233 -0.2395,-0.239501 v -5.842991 -5.842992 h 6.082589 6.082602 l -0.09499,5.987629 -0.09498,5.987616 -5.74813,0.09485 -5.748113,0.09485 z m 10.173756,-5.851085 v -4.338853 h -4.338863 -4.33885 v 4.338853 4.338852 h 4.33885 4.338863 z m -6.942169,0 V 17.75005 h 2.603306 2.603318 v 2.603306 2.603319 h -2.603318 -2.603306 z"
       id="path1" /></g></svg>
