<?xml version="1.0" encoding="UTF-8" standalone="no"?>
<!-- Created with Inkscape (http://www.inkscape.org/) -->

<svg
   width="87.95945mm"
   height="62.543331mm"
   viewBox="0 0 87.95945 62.543331"
   version="1.1"
   id="svg1"
   xml:space="preserve"
   inkscape:version="1.4 (e7c3feb100, 2024-10-09)"
   sodipodi:docname="g36-group.svg"
   xmlns:inkscape="http://www.inkscape.org/namespaces/inkscape"
   xmlns:sodipodi="http://sodipodi.sourceforge.net/DTD/sodipodi-0.dtd"
   xmlns="http://www.w3.org/2000/svg"
   xmlns:svg="http://www.w3.org/2000/svg"><sodipodi:namedview
     id="namedview1"
     pagecolor="#ffffff"
     bordercolor="#666666"
     borderopacity="1.0"
     inkscape:showpageshadow="2"
     inkscape:pageopacity="0.0"
     inkscape:pagecheckerboard="0"
     inkscape:deskcolor="#d1d1d1"
     inkscape:document-units="mm"
     inkscape:zoom="1.2747827"
     inkscape:cx="168.26397"
     inkscape:cy="84.720322"
     inkscape:window-width="1290"
     inkscape:window-height="971"
     inkscape:window-x="26"
     inkscape:window-y="23"
     inkscape:window-maximized="0"
     inkscape:current-layer="layer1" /><defs
     id="defs1" /><g
     inkscape:label="Layer 1"
     inkscape:groupmode="layer"
     id="layer1"
     transform="translate(-61.205225,-125.02963)"><path
       style="fill:#000000"
       d="m 136.19343,181.84268 c -0.48783,-0.76826 -2.35306,-3.74833 -4.14497,-6.62237 -2.22311,-3.56564 -3.40538,-5.22552 -3.72196,-5.22552 -0.25518,0 -3.12858,1.92216 -6.38533,4.27145 -3.25676,2.3493 -6.07462,4.28407 -6.2619,4.29948 -0.18729,0.0154 -0.54196,-0.29886 -0.78817,-0.69839 -0.42727,-0.69335 -0.42381,-0.74362 0.0759,-1.10438 0.28797,-0.20788 3.14296,-2.26892 6.34441,-4.58008 l 5.82084,-4.20212 0.0693,-9.82119 0.0693,-9.82119 -1.39226,-0.39635 c -0.76575,-0.21799 -4.24977,-1.13843 -7.74227,-2.04541 -3.4925,-0.90699 -6.44142,-1.72785 -6.55316,-1.82413 -0.11174,-0.0963 0.3704,-1.38991 1.07143,-2.87473 l 1.27459,-2.69968 3.1619,2.15466 c 1.73905,1.18506 4.633,3.16647 6.431,4.40313 3.29597,2.26698 3.35868,2.28307 2.76993,0.7109 -0.0583,-0.15578 0.32163,-0.4145 0.84436,-0.57493 0.88691,-0.27221 0.96671,-0.24886 1.19416,0.34938 0.13406,0.3526 0.29113,0.64108 0.34904,0.64108 0.0579,0 2.59095,-1.78965 5.62895,-3.97701 l 5.52364,-3.97702 0.594,0.73587 c 0.32669,0.40473 0.59122,0.7954 0.58783,0.86816 -0.003,0.0728 -2.34349,1.79917 -5.20021,3.83646 -2.85673,2.03729 -5.53227,3.98264 -5.94565,4.323 l -0.7516,0.61883 v 9.65855 c 0,9.53436 0.007,9.66037 0.54584,9.80128 0.43442,0.1136 0.52893,0.3181 0.46302,1.00181 -0.08,0.82957 0.11474,1.01564 5.67187,5.42002 3.16508,2.50853 5.74498,4.63618 5.73311,4.72811 -0.0119,0.0919 -1.018,1.03386 -2.23585,2.09316 l -2.21427,1.92602 z m -49.013227,-5.55025 c -2.18281,-3.50925 -4.155519,-6.49643 -4.383797,-6.63816 -0.323762,-0.20103 -1.75884,0.71008 -6.52476,4.14245 -3.360341,2.42009 -6.232677,4.40016 -6.382969,4.40016 -0.278555,0 -1.097013,-1.02015 -1.097013,-1.36734 0,-0.1052 2.8575,-2.24559 6.35,-4.75644 l 6.35,-4.56517 v -9.74332 -9.74333 l -0.596543,-0.22681 c -0.328099,-0.12474 -3.870209,-1.087 -7.871355,-2.13836 -4.001146,-1.05135 -7.307303,-1.94126 -7.347016,-1.97756 -0.03971,-0.0363 0.486611,-1.2787 1.169609,-2.76087 0.861343,-1.86921 1.352615,-2.65235 1.603456,-2.55609 0.198904,0.0763 2.768205,1.79022 5.709559,3.80865 2.941353,2.01843 5.678346,3.88159 6.082206,4.14036 l 0.73429,0.47048 -0.271269,-0.71349 c -0.149199,-0.39242 -0.27127,-0.75604 -0.27127,-0.80804 0,-0.13529 1.874909,-0.73617 1.950109,-0.62498 0.03441,0.0509 0.175264,0.34891 0.313001,0.66229 0.23605,0.53705 0.554309,0.3496 5.542102,-3.26436 2.91041,-2.10877 5.44077,-3.89606 5.62301,-3.97176 0.30307,-0.12587 1.35896,0.86352 1.37964,1.29276 0.005,0.10047 -2.61057,2.06387 -5.81203,4.36311 l -5.820832,4.18043 v 9.82994 c 0,8.79672 0.04483,9.84715 0.426458,9.9936 0.303772,0.11656 0.392455,0.39532 0.308264,0.96895 -0.113252,0.77163 0.120577,0.99424 5.59281,5.32446 3.14106,2.48554 5.71101,4.62669 5.71101,4.7581 0,0.2565 -4.07526,3.93003 -4.33954,3.91175 -0.0871,-0.006 -1.94431,-2.88215 -4.12713,-6.39141 z m 53.030147,-4.08965 c -0.51547,-0.13875 -0.36541,-1.64952 0.18481,-1.86066 0.66566,-0.25544 1.68609,0.16482 1.68609,0.69441 0,1.21623 -0.5082,1.53302 -1.8709,1.16625 z m -45.423377,-0.27804 c -0.44217,-0.0852 -0.59427,-0.2971 -0.59126,-0.82387 0.006,-1.10341 0.31707,-1.39904 1.27026,-1.2084 0.85934,0.17186 1.08153,0.75868 0.68176,1.80048 -0.16181,0.42165 -0.27494,0.44092 -1.36076,0.23179 z m 42.664067,-0.22739 c -0.14552,-0.0378 -0.5718,-0.13591 -0.94728,-0.21797 -0.59126,-0.12922 -0.66656,-0.25917 -0.5622,-0.9702 0.1357,-0.9246 0.54386,-1.17726 1.51007,-0.93476 0.46655,0.1171 0.6554,0.33943 0.64227,0.75614 -0.0256,0.81224 -0.32525,1.44934 -0.64286,1.36679 z m -46.632817,-0.56636 c -0.44217,-0.0852 -0.59427,-0.2971 -0.59126,-0.82387 0.006,-1.05122 0.29099,-1.31844 1.25272,-1.17461 0.68421,0.10232 0.8599,0.25318 0.8599,0.73838 0,0.33539 -0.0723,0.79812 -0.1606,1.02831 -0.16181,0.42165 -0.27494,0.44092 -1.36076,0.23179 z m 42.068747,-0.29306 c -0.78405,-0.0756 -0.85989,-0.16174 -0.85989,-0.97658 0,-1.0659 0.278,-1.28668 1.32937,-1.05576 0.58742,0.12901 0.78257,0.31872 0.7687,0.74721 -0.0345,1.06503 -0.33083,1.37261 -1.23818,1.28513 z m -46.169785,-0.49635 c -0.297001,-0.0776 -0.461568,-0.37494 -0.458969,-0.82921 0.006,-1.0502 0.291218,-1.3174 1.252717,-1.17361 0.68421,0.10232 0.8599,0.25318 0.8599,0.73838 0,1.32822 -0.35904,1.60275 -1.653648,1.26444 z m 25.370785,-13.70741 c -0.12955,-0.33761 -1.05349,-0.39771 -6.11405,-0.39771 -9.380395,0 -8.552352,-0.79375 -0.0215,-0.79375 4.86947,0 5.97811,-0.068 6.15157,-0.37753 0.17607,-0.31416 0.37731,-0.27748 1.19897,0.21856 l 0.98738,0.59609 -1.0249,0.57603 c -0.8719,0.49003 -1.04769,0.51665 -1.17752,0.17831 z m 13.08582,-13.93094 c -0.15975,-0.45828 -0.29046,-0.86576 -0.29046,-0.90552 0,-0.12281 1.88286,-0.70098 1.96282,-0.60272 0.0414,0.0509 0.20746,0.48415 0.36901,0.96281 0.27331,0.80981 0.24726,0.88797 -0.37482,1.12448 -1.06947,0.40661 -1.35787,0.30641 -1.66655,-0.57905 z M 79.512357,142.5012 c -0.251829,-1.14657 -0.25847,-1.13119 0.654421,-1.51504 0.812009,-0.34142 0.835014,-0.33069 1.208617,0.56346 0.484089,1.15859 0.494232,1.10727 -0.256026,1.29557 -0.350283,0.0879 -0.815228,0.22829 -1.033211,0.31193 -0.280861,0.10778 -0.448038,-0.0833 -0.573801,-0.65592 z m 32.280363,-1.82468 c 0.0762,0.0762 -0.0762,-0.0762 0,0 z m 12.10014,-1.77448 c -0.2735,-0.89116 -0.25064,-0.96603 0.36661,-1.20071 1.05861,-0.40248 1.34833,-0.30051 1.65631,0.58295 0.15976,0.45827 0.29047,0.86209 0.29047,0.89735 0,0.0353 -0.2866,0.13606 -0.63688,0.22398 -0.35029,0.0879 -0.80517,0.22442 -1.01085,0.30335 -0.25412,0.0975 -0.46745,-0.16108 -0.66566,-0.80692 z m -45.759843,-0.48658 c -0.276589,-0.9012 -0.258828,-0.94287 0.51726,-1.21342 1.128537,-0.39341 1.167794,-0.37863 1.49606,0.56303 0.337686,0.96869 0.186486,1.20097 -0.926657,1.4236 -0.735792,0.14716 -0.823307,0.0849 -1.086663,-0.77321 z m 44.449993,-3.43958 c -0.27658,-0.90121 -0.25882,-0.94287 0.51726,-1.21342 1.12854,-0.39341 1.1678,-0.37864 1.49607,0.56303 0.33768,0.96868 0.18648,1.20097 -0.92666,1.4236 -0.73579,0.14716 -0.82331,0.0849 -1.08667,-0.77321 z m -45.686388,-0.23681 c -0.421637,-0.99818 -0.314387,-1.1877 0.798024,-1.41018 0.741132,-0.14823 0.844356,-0.0839 1.116211,0.69597 0.164756,0.47263 0.299557,0.88943 0.299557,0.92624 0,0.066 -1.579501,0.64786 -1.758515,0.64786 -0.05063,0 -0.255502,-0.38695 -0.455277,-0.85989 z"
       id="path1"
       sodipodi:nodetypes="cssssssscccsssscssssssscscsscssssssccsssssscccssssssscsssssscscsssssssssssscssssssssssssscsssssssssssssssscssssssssscsssscccssssssssssssssssscssssc" /><text
       xml:space="preserve"
       style="font-size:8.46667px;line-height:1.25;font-family:'Intel Clear';-inkscape-font-specification:'Intel Clear';text-align:center;text-anchor:middle;stroke-width:0.264583"
       x="63.288025"
       y="140.29703"
       id="text1"><tspan
         sodipodi:role="line"
         id="tspan1"
         x="63.288025"
         y="140.29703"
         style="stroke-width:0.264583">3</tspan></text><text
       xml:space="preserve"
       style="font-size:8.46667px;line-height:1.25;font-family:'Intel Clear';-inkscape-font-specification:'Intel Clear';text-align:center;text-anchor:middle;fill:#ff0000;stroke-width:0.264583"
       x="121.17455"
       y="131.27441"
       id="text1-61"><tspan
         sodipodi:role="line"
         id="tspan1-0"
         x="121.17455"
         y="131.27441"
         style="fill:#ff0000;stroke-width:0.264583">3</tspan></text><text
       xml:space="preserve"
       style="font-size:8.46667px;line-height:1.25;font-family:'Intel Clear';-inkscape-font-specification:'Intel Clear';text-align:center;text-anchor:middle;stroke-width:0.264583"
       x="75.378922"
       y="130.87163"
       id="text1-6"><tspan
         sodipodi:role="line"
         id="tspan1-2"
         x="75.378922"
         y="130.87163"
         style="stroke-width:0.264583">2</tspan></text><text
       xml:space="preserve"
       style="font-size:8.46667px;line-height:1.25;font-family:'Intel Clear';-inkscape-font-specification:'Intel Clear';text-align:center;text-anchor:middle;fill:#ff0000;stroke-width:0.264583"
       x="143.26657"
       y="138.72261"
       id="text1-6-8"><tspan
         sodipodi:role="line"
         id="tspan1-2-4"
         x="143.26657"
         y="138.72261"
         style="fill:#ff0000;stroke-width:0.264583">2</tspan></text><text
       xml:space="preserve"
       style="font-size:8.46667px;line-height:1.25;font-family:'Intel Clear';-inkscape-font-specification:'Intel Clear';text-align:center;text-anchor:middle;stroke-width:0.264583"
       x="97.075943"
       y="137.20981"
       id="text2"><tspan
         sodipodi:role="line"
         id="tspan2"
         x="97.075943"
         y="137.20981"
         style="stroke-width:0.264583">1</tspan></text><text
       xml:space="preserve"
       style="font-size:8.46667px;line-height:1.25;font-family:'Intel Clear';-inkscape-font-specification:'Intel Clear';text-align:center;text-anchor:middle;fill:#ff0000;stroke-width:0.264583"
       x="109.28187"
       y="140.32642"
       id="text2-2-3"><tspan
         sodipodi:role="line"
         id="tspan2-2-1"
         x="109.28187"
         y="140.32642"
         style="fill:#ff0000;stroke-width:0.264583">1</tspan></text><text
       xml:space="preserve"
       style="font-size:8.46667px;line-height:1.25;font-family:'Intel Clear';-inkscape-font-specification:'Intel Clear';text-align:center;text-anchor:middle;stroke-width:0.264583"
       x="65.17466"
       y="180.08789"
       id="text3"><tspan
         sodipodi:role="line"
         id="tspan3"
         x="65.17466"
         y="180.08789"
         style="stroke-width:0.264583">4</tspan></text><text
       xml:space="preserve"
       style="font-size:8.46667px;line-height:1.25;font-family:'Intel Clear';-inkscape-font-specification:'Intel Clear';text-align:center;text-anchor:middle;stroke-width:0.264583"
       x="110.75503"
       y="183.04666"
       id="text3-3"><tspan
         sodipodi:role="line"
         id="tspan3-6"
         x="110.75503"
         y="183.04666"
         style="stroke-width:0.264583">4</tspan></text><text
       xml:space="preserve"
       style="font-size:8.46667px;line-height:1.25;font-family:'Intel Clear';-inkscape-font-specification:'Intel Clear';text-align:center;text-anchor:middle;stroke-width:0.264583"
       x="100.84921"
       y="173.22737"
       id="text4"><tspan
         sodipodi:role="line"
         id="tspan4"
         x="100.84921"
         y="173.22737"
         style="stroke-width:0.264583">5</tspan></text><text
       xml:space="preserve"
       style="font-size:8.46667px;line-height:1.25;font-family:'Intel Clear';-inkscape-font-specification:'Intel Clear';text-align:center;text-anchor:middle;stroke-width:0.264583"
       x="147.25121"
       y="175.23677"
       id="text4-0"><tspan
         sodipodi:role="line"
         id="tspan4-6"
         x="147.25121"
         y="175.23677"
         style="stroke-width:0.264583">5</tspan></text><text
       xml:space="preserve"
       style="font-size:8.46667px;line-height:1.25;font-family:'Intel Clear';-inkscape-font-specification:'Intel Clear';text-align:center;text-anchor:middle;stroke-width:0.264583"
       x="97.075943"
       y="187.46289"
       id="text5"><tspan
         sodipodi:role="line"
         id="tspan5"
         x="97.075943"
         y="187.46289"
         style="stroke-width:0.264583">6</tspan></text><text
       xml:space="preserve"
       style="font-size:8.46667px;line-height:1.25;font-family:'Intel Clear';-inkscape-font-specification:'Intel Clear';text-align:center;text-anchor:middle;stroke-width:0.264583"
       x="143.62163"
       y="187.17465"
       id="text5-4"><tspan
         sodipodi:role="line"
         id="tspan5-7"
         x="143.62163"
         y="187.17465"
         style="stroke-width:0.264583">6</tspan></text></g></svg>
